<svg width="96" height="80" viewBox="0 0 96 80" fill="none" xmlns="http://www.w3.org/2000/svg">
<mask id="mask0" mask-type="alpha" maskUnits="userSpaceOnUse" x="0" y="0" width="96" height="80">
<rect width="96" height="80" fill="#C4C4C4"/>
</mask>
<g mask="url(#mask0)">
<path d="M46.7386 39.1349H14.392C7.55919 39.1349 2 33.5819 2 26.7566C2 19.9313 7.55919 14.3783 14.392 14.3783C14.5435 14.3783 14.6915 14.3817 14.8429 14.3852C16.5572 7.2986 22.9838 2 30.567 2C39.1347 2 46.1672 8.68772 46.7076 17.1084C46.718 17.1084 46.7283 17.1084 46.742 17.1084C52.821 17.1084 57.7675 22.0494 57.7675 28.1217C57.7641 34.1939 52.8176 39.1349 46.7386 39.1349ZM14.392 20.5675C10.9739 20.5675 8.19601 23.3457 8.19601 26.7566C8.19601 30.1675 10.9739 32.9458 14.392 32.9458H46.7386C49.4029 32.9458 51.568 30.783 51.568 28.1217C51.568 25.4603 49.4029 23.2976 46.7386 23.2976C46.0123 23.2976 45.3135 23.4557 44.6664 23.7652C43.5993 24.2741 42.3326 24.1297 41.4066 23.3938C40.4806 22.658 40.0538 21.4614 40.3085 20.3061C40.4634 19.5944 40.5426 18.8723 40.5426 18.1537C40.5426 12.6591 36.0677 8.18915 30.567 8.18915C25.1283 8.18915 20.6569 12.6075 20.5915 18.0402C20.5811 19.0374 20.0855 19.9692 19.2662 20.5434C18.447 21.1142 17.4005 21.2586 16.4573 20.925C15.7964 20.6878 15.1011 20.5675 14.392 20.5675Z" fill="#66CCCC"/>
<path d="M88.7439 48.4188H85.6459V39.135C85.6459 32.3098 80.0867 26.7567 73.2539 26.7567C66.4211 26.7567 60.8619 32.3098 60.8619 39.135V48.4188H57.7639C56.0531 48.4188 54.6659 49.8044 54.6659 51.5133V73.1753C54.6659 74.8842 56.0531 76.2699 57.7639 76.2699H88.7439C90.4547 76.2699 91.8419 74.8842 91.8419 73.1753V51.5133C91.8419 49.8044 90.4547 48.4188 88.7439 48.4188ZM73.2539 32.9459C76.672 32.9459 79.4499 35.7241 79.4499 39.135V48.4188H67.0579V39.135C67.0579 35.7241 69.8358 32.9459 73.2539 32.9459ZM85.6459 70.0808H60.8619V54.6079H85.6459V70.0808Z" fill="#6666CC"/>
<path d="M63.9605 20.5677C65.6715 20.5677 67.0585 19.1822 67.0585 17.4731C67.0585 15.764 65.6715 14.3785 63.9605 14.3785C62.2495 14.3785 60.8625 15.764 60.8625 17.4731C60.8625 19.1822 62.2495 20.5677 63.9605 20.5677Z" fill="#6666CC"/>
<path d="M73.2554 20.5677C74.9664 20.5677 76.3534 19.1822 76.3534 17.4731C76.3534 15.764 74.9664 14.3785 73.2554 14.3785C71.5444 14.3785 70.1574 15.764 70.1574 17.4731C70.1574 19.1822 71.5444 20.5677 73.2554 20.5677Z" fill="#6666CC"/>
<path d="M82.5486 20.5677C84.2596 20.5677 85.6466 19.1822 85.6466 17.4731C85.6466 15.764 84.2596 14.3785 82.5486 14.3785C80.8376 14.3785 79.4506 15.764 79.4506 17.4731C79.4506 19.1822 80.8376 20.5677 82.5486 20.5677Z" fill="#6666CC"/>
<path d="M48.471 75.4568H14.3929C12.6821 75.4568 11.2949 74.0711 11.2949 72.3622V44.511H17.4909V69.2676H48.471V75.4568Z" fill="#6666CC"/>
</g>
</svg>
