<svg width="96" height="80" viewBox="0 0 96 80" fill="none" xmlns="http://www.w3.org/2000/svg">
<mask id="mask0" mask-type="alpha" maskUnits="userSpaceOnUse" x="0" y="0" width="96" height="80">
<rect width="96" height="80" fill="#C4C4C4"/>
</mask>
<g mask="url(#mask0)">
<path d="M82.4507 77.2699H14.2946C12.5838 77.2699 11.1966 75.8842 11.1966 74.1753V40.1349H17.3926V71.0807H79.3527V46.3241H85.5487V74.1753C85.5487 75.8842 84.1615 77.2699 82.4507 77.2699Z" fill="#6666CC"/>
<path d="M62.0469 58.7025H48.3709V45.0417L75.2341 18.2082C79.0033 14.4431 85.1408 14.4431 88.91 18.2082C92.6793 21.9733 92.6793 28.104 88.91 31.8691L62.0469 58.7025ZM54.5669 52.5133H59.479L84.5281 27.4919C85.1855 26.8352 85.547 25.9653 85.547 25.0369C85.547 24.1085 85.1855 23.2386 84.5281 22.5819C83.8706 21.9251 82.9997 21.5641 82.0703 21.5641C81.1409 21.5641 80.27 21.9251 79.6126 22.5819L54.5669 47.6067V52.5133Z" fill="#6666CC"/>
<path d="M42.176 47.6067L28.5001 33.9458H20.49C11.9499 33.9458 5 27.0037 5 18.4729C5 9.94218 11.9499 3 20.49 3H39.078C47.6182 3 54.5681 9.94218 54.5681 18.4729C54.5681 25.9446 49.2361 32.1957 42.176 33.6364V47.6067ZM20.49 9.18917C15.3645 9.18917 11.196 13.3531 11.196 18.4729C11.196 23.5927 15.3645 27.7567 20.49 27.7567H31.068L35.98 32.6633V27.7567H39.078C44.2035 27.7567 48.3721 23.5927 48.3721 18.4729C48.3721 13.3531 44.2035 9.18917 39.078 9.18917H20.49Z" fill="#66CCCC"/>
<path d="M20.4895 21.5675C22.2004 21.5675 23.5875 20.1821 23.5875 18.473C23.5875 16.764 22.2004 15.3785 20.4895 15.3785C18.7785 15.3785 17.3914 16.764 17.3914 18.473C17.3914 20.1821 18.7785 21.5675 20.4895 21.5675Z" fill="#66CCCC"/>
<path d="M29.7844 21.5675C31.4954 21.5675 32.8824 20.1821 32.8824 18.473C32.8824 16.764 31.4954 15.3785 29.7844 15.3785C28.0734 15.3785 26.6864 16.764 26.6864 18.473C26.6864 20.1821 28.0734 21.5675 29.7844 21.5675Z" fill="#66CCCC"/>
<path d="M63.8622 21.5675C65.5731 21.5675 66.9602 20.1821 66.9602 18.473C66.9602 16.764 65.5731 15.3785 63.8622 15.3785C62.1512 15.3785 60.7642 16.764 60.7642 18.473C60.7642 20.1821 62.1512 21.5675 63.8622 21.5675Z" fill="#66CCCC"/>
</g>
</svg>
