<svg width="96" height="80" viewBox="0 0 96 80" fill="none" xmlns="http://www.w3.org/2000/svg">
<mask id="mask0" mask-type="alpha" maskUnits="userSpaceOnUse" x="0" y="0" width="96" height="80">
<rect width="96" height="80" fill="#C4C4C4"/>
</mask>
<g mask="url(#mask0)">
<path d="M71.6051 41.3354C72.9541 41.3354 74.0477 40.3694 74.0477 39.1777C74.0477 37.9861 72.9541 37.02 71.6051 37.02C70.2562 37.02 69.1626 37.9861 69.1626 39.1777C69.1626 40.3694 70.2562 41.3354 71.6051 41.3354Z" fill="#66CCCC"/>
<path d="M71.6047 47.9691C72.9537 47.9691 74.0472 47.0031 74.0472 45.8115C74.0472 44.6199 72.9537 43.6539 71.6047 43.6539C70.2558 43.6539 69.1622 44.6199 69.1622 45.8115C69.1622 47.0031 70.2558 47.9691 71.6047 47.9691Z" fill="#66CCCC"/>
<path d="M76.3869 40.7737L85.8289 40.7737L85.8289 37.5533L76.3869 37.5533L76.3869 40.7737Z" fill="#66CCCC"/>
<path d="M76.3869 47.4431L85.8289 47.4431L85.8289 44.2229L76.3869 44.2229L76.3869 47.4431Z" fill="#66CCCC"/>
<path d="M53.486 68.9655H8.28101C6.45822 68.9655 5 67.6773 5 66.0672V13.8983C5 12.2881 6.45822 11 8.28101 11H80.4631C82.2859 11 83.7441 12.2881 83.7441 13.8983V22.9473H77.1821V16.7965H11.562V63.1689H53.486V68.9655Z" fill="#6666CC"/>
<path d="M87.0248 68.9653H60.7767C58.954 68.9653 57.4957 67.6772 57.4957 66.0671V29.2913C57.4957 27.6812 58.954 26.3931 60.7767 26.3931H87.0248C88.8476 26.3931 90.3058 27.6812 90.3058 29.2913V66.0671C90.3058 67.6772 88.8476 68.9653 87.0248 68.9653ZM64.0577 63.1688H83.7438V32.1896H64.0577V63.1688Z" fill="#6666CC"/>
<path d="M22.5353 30.3219C24.3474 30.3219 25.8163 29.0243 25.8163 27.4236C25.8163 25.823 24.3474 24.5254 22.5353 24.5254C20.7233 24.5254 19.2543 25.823 19.2543 27.4236C19.2543 29.0243 20.7233 30.3219 22.5353 30.3219Z" fill="#66CCCC"/>
<path d="M22.5355 39.2422C24.3475 39.2422 25.8165 37.9446 25.8165 36.3439C25.8165 34.7433 24.3475 33.4457 22.5355 33.4457C20.7234 33.4457 19.2545 34.7433 19.2545 36.3439C19.2545 37.9446 20.7234 39.2422 22.5355 39.2422Z" fill="#66CCCC"/>
<path d="M28.954 29.6947L53.0876 29.6947L53.0876 25.3474L28.954 25.3474L28.954 29.6947Z" fill="#66CCCC"/>
<path d="M28.954 38.6212L53.0876 38.6212L53.0876 34.2739L28.954 34.2739L28.954 38.6212Z" fill="#66CCCC"/>
</g>
</svg>
