<svg width="96" height="80" viewBox="0 0 96 80" fill="none" xmlns="http://www.w3.org/2000/svg">
<mask id="mask0" mask-type="alpha" maskUnits="userSpaceOnUse" x="0" y="0" width="96" height="80">
<rect width="96" height="80" fill="#C4C4C4"/>
</mask>
<g mask="url(#mask0)">
<path d="M88.6461 77.2696H8.098C6.38722 77.2696 5 75.884 5 74.1751V15.3781C5 13.6693 6.38722 12.2836 8.098 12.2836H23.588V18.4727H11.196V71.0805H85.5481V18.4727H73.1561V12.2836H88.6461C90.3569 12.2836 91.7441 13.6693 91.7441 15.3781V74.1751C91.7441 75.884 90.3569 77.2696 88.6461 77.2696Z" fill="#6666CC"/>
<path d="M54.5669 27.7565H42.1749C35.3421 27.7565 29.7829 22.2035 29.7829 15.3783C29.7829 8.55303 35.3421 3 42.1749 3H54.5669C61.3997 3 66.9589 8.55303 66.9589 15.3783C66.9589 22.2035 61.3997 27.7565 54.5669 27.7565ZM42.1749 9.18913C38.7602 9.18913 35.9789 11.9674 35.9789 15.3783C35.9789 18.7892 38.7602 21.5674 42.1749 21.5674H54.5669C57.9816 21.5674 60.7629 18.7892 60.7629 15.3783C60.7629 11.9674 57.9816 9.18913 54.5669 9.18913H42.1749Z" fill="#6666CC"/>
<path d="M48.371 18.4726C50.082 18.4726 51.469 17.0872 51.469 15.3781C51.469 13.669 50.082 12.2836 48.371 12.2836C46.66 12.2836 45.273 13.669 45.273 15.3781C45.273 17.0872 46.66 18.4726 48.371 18.4726Z" fill="#6666CC"/>
<path d="M48.3721 46.324C51.7941 46.324 54.5681 43.553 54.5681 40.1349C54.5681 36.7168 51.7941 33.9458 48.3721 33.9458C44.9502 33.9458 42.1761 36.7168 42.1761 40.1349C42.1761 43.553 44.9502 46.324 48.3721 46.324Z" fill="#66CCCC"/>
<path d="M66.9602 49.4186C70.3821 49.4186 73.1562 46.6477 73.1562 43.2295C73.1562 39.8113 70.3821 37.0404 66.9602 37.0404C63.5382 37.0404 60.7642 39.8113 60.7642 43.2295C60.7642 46.6477 63.5382 49.4186 66.9602 49.4186Z" fill="#66CCCC"/>
<path d="M66.9602 52.5133C64.7881 52.5133 62.7022 52.8881 60.7642 53.5758V61.7971H76.2542V55.0027C73.5211 53.421 70.3473 52.5133 66.9602 52.5133Z" fill="#66CCCC"/>
<path d="M29.784 49.4186C33.206 49.4186 35.98 46.6477 35.98 43.2295C35.98 39.8113 33.206 37.0404 29.784 37.0404C26.3621 37.0404 23.588 39.8113 23.588 43.2295C23.588 46.6477 26.3621 49.4186 29.784 49.4186Z" fill="#66CCCC"/>
<path d="M29.7855 52.5133C31.9576 52.5133 34.0436 52.8881 35.9815 53.5758V61.7971H20.4915V55.0027C23.2246 53.421 26.3984 52.5133 29.7855 52.5133Z" fill="#66CCCC"/>
<path d="M39.0778 61.7968H57.6658V51.9114C54.9327 50.3297 51.759 49.4185 48.3718 49.4185C44.9847 49.4185 41.8109 50.3297 39.0778 51.9114V61.7968Z" fill="#66CCCC"/>
</g>
</svg>
