<svg width="174" height="72" viewBox="0 0 174 72" fill="none" xmlns="http://www.w3.org/2000/svg">
<path d="M2.784 67.2312V61.3592L6.496 67.2312H8.416L4.864 61.8072C6.64 61.7112 8.048 60.7352 8.048 58.7512V58.2712C8.048 56.2872 6.64 55.2312 4.704 55.2312H1.184V67.2312H2.784ZM4.544 56.7032C5.712 56.7032 6.448 57.1672 6.448 58.4312V58.5912C6.448 59.9352 5.712 60.4792 4.544 60.4792H2.784V56.7032H4.544ZM17.0726 63.7752C17.0886 63.5992 17.1046 63.4232 17.1046 63.2312C17.1046 60.7832 15.4406 59.0712 13.1686 59.0712C10.8966 59.0712 9.23263 60.7832 9.23263 63.2312C9.23263 65.6792 10.8966 67.3912 13.1686 67.3912C15.0086 67.3912 16.4006 66.4792 16.8966 64.8312H15.1686C14.8486 65.5512 14.2086 65.9832 13.2326 65.9832C11.8886 65.9832 10.9926 65.1672 10.8006 63.7752H17.0726ZM13.1686 60.4792C14.4486 60.4792 15.3286 61.2792 15.5206 62.6232H10.8166C11.0086 61.2792 11.8726 60.4792 13.1686 60.4792ZM23.9431 62.6392V67.2312H25.5431V62.6392C25.5431 61.1992 26.1991 60.4792 27.2871 60.4792C28.3591 60.4792 28.9991 61.1992 28.9991 62.6392V67.2312H30.5991V62.3192C30.5991 60.1272 29.3991 59.0712 27.7831 59.0712C26.6311 59.0712 25.7031 59.6152 25.2391 60.6552C24.7751 59.5832 23.8471 59.0712 22.7111 59.0712C21.7511 59.0712 20.9511 59.5192 20.4871 60.3512V59.2312H18.8871V67.2312H20.4871V62.6392C20.4871 61.1992 21.1431 60.4792 22.2151 60.4792C23.2871 60.4792 23.9431 61.1992 23.9431 62.6392ZM36.3431 67.3912C38.6631 67.3912 40.3911 65.6792 40.3911 63.2312C40.3911 60.7832 38.6631 59.0712 36.3431 59.0712C34.0231 59.0712 32.2951 60.7832 32.2951 63.2312C32.2951 65.6792 34.0231 67.3912 36.3431 67.3912ZM36.3431 65.9192C34.9511 65.9192 33.8951 64.8472 33.8951 63.2312C33.8951 61.6152 34.9511 60.5432 36.3431 60.5432C37.7351 60.5432 38.7911 61.6152 38.7911 63.2312C38.7911 64.8472 37.7351 65.9192 36.3431 65.9192ZM44.2164 64.4952V60.6392H46.5204V59.2312H44.2164V56.8632H42.6164V59.2312H41.3044V60.6392H42.6164V64.5912C42.6164 66.7672 43.7364 67.3912 45.2724 67.3912C45.7364 67.3912 46.2324 67.2952 46.5204 67.1992V65.7752C46.2484 65.8712 45.9284 65.9192 45.5764 65.9192C44.6484 65.9192 44.2164 65.4872 44.2164 64.4952ZM55.5726 63.7752C55.5886 63.5992 55.6046 63.4232 55.6046 63.2312C55.6046 60.7832 53.9406 59.0712 51.6686 59.0712C49.3966 59.0712 47.7326 60.7832 47.7326 63.2312C47.7326 65.6792 49.3966 67.3912 51.6686 67.3912C53.5086 67.3912 54.9006 66.4792 55.3966 64.8312H53.6686C53.3486 65.5512 52.7086 65.9832 51.7326 65.9832C50.3886 65.9832 49.4926 65.1672 49.3006 63.7752H55.5726ZM51.6686 60.4792C52.9486 60.4792 53.8286 61.2792 54.0206 62.6232H49.3166C49.5086 61.2792 50.3726 60.4792 51.6686 60.4792ZM64.1344 67.2312L65.7344 56.6072L67.3344 67.2312H69.7344L71.5744 55.2312H69.9744L68.5024 65.6472L66.9344 55.2312H64.5344L62.9664 65.6472L61.4944 55.2312H59.8944L61.7344 67.2312H64.1344ZM76.2181 67.3912C78.5381 67.3912 80.2661 65.6792 80.2661 63.2312C80.2661 60.7832 78.5381 59.0712 76.2181 59.0712C73.8981 59.0712 72.1701 60.7832 72.1701 63.2312C72.1701 65.6792 73.8981 67.3912 76.2181 67.3912ZM76.2181 65.9192C74.8261 65.9192 73.7701 64.8472 73.7701 63.2312C73.7701 61.6152 74.8261 60.5432 76.2181 60.5432C77.6101 60.5432 78.6661 61.6152 78.6661 63.2312C78.6661 64.8472 77.6101 65.9192 76.2181 65.9192ZM83.6434 59.2312H82.0434V67.2312H83.6434V63.2152C83.6434 61.5672 84.5394 60.7352 86.0754 60.7352C86.3954 60.7352 86.6834 60.7832 86.9234 60.8632V59.1192C86.7954 59.0872 86.6034 59.0712 86.4114 59.0712C85.1954 59.0712 84.2194 59.6312 83.6434 60.6712V59.2312ZM90.0965 55.2312H88.4965V67.2312H90.0965V63.0232L93.9205 67.2312H95.9525L91.9045 62.8792L95.6645 59.2312H93.5365L90.0965 62.7832V55.2312ZM102.3 67.2312V62.6552H104.172C106.108 62.6552 107.484 61.4712 107.484 59.2952V58.4312C107.484 56.3352 106.108 55.2312 104.172 55.2312H100.7V67.2312H102.3ZM104.012 56.7032C105.164 56.7032 105.884 57.2312 105.884 58.5912V59.1352C105.884 60.5912 105.164 61.1832 104.012 61.1832H102.3V56.7032H104.012ZM110.784 67.2312V55.2312H109.184V67.2312H110.784ZM115.457 67.3912C116.609 67.3912 117.633 66.9432 118.161 65.8872V67.2312H119.729V61.6312C119.729 59.7752 118.129 59.0712 116.401 59.0712C114.641 59.0712 112.977 59.8552 112.977 61.9192H114.641C114.641 60.8792 115.361 60.3512 116.401 60.3512C117.377 60.3512 118.129 60.7832 118.129 61.5672C118.129 63.3912 112.737 61.6632 112.737 65.1192C112.737 66.7032 114.033 67.3912 115.457 67.3912ZM114.369 65.0232C114.369 63.6792 116.801 64.0152 118.161 63.3592V63.9352C118.161 65.3272 117.009 66.0472 115.777 66.0472C114.961 66.0472 114.369 65.7112 114.369 65.0232ZM125.534 68.1272L128.686 59.2312H127.086L124.782 65.9352L122.462 59.2312H120.862L124.03 68.1112C123.518 69.3592 122.974 69.9512 121.966 69.9512C121.582 69.9512 121.214 69.8712 120.91 69.7752V71.1832C121.214 71.2792 121.662 71.3592 122.11 71.3592C124.078 71.3592 124.862 70.0312 125.534 68.1272ZM134.189 59.0712C133.117 59.0712 132.189 59.5832 131.565 60.4312V55.2312H129.965V67.2312H131.565V66.0312C132.189 66.8792 133.117 67.3912 134.189 67.3912C136.381 67.3912 138.029 65.6792 138.029 63.2312C138.029 60.7832 136.381 59.0712 134.189 59.0712ZM133.997 60.5432C135.389 60.5432 136.429 61.6152 136.429 63.2312C136.429 64.8472 135.389 65.9192 133.997 65.9192C132.605 65.9192 131.565 64.8472 131.565 63.2312C131.565 61.6152 132.605 60.5432 133.997 60.5432ZM143.265 67.3912C145.585 67.3912 147.313 65.6792 147.313 63.2312C147.313 60.7832 145.585 59.0712 143.265 59.0712C140.945 59.0712 139.217 60.7832 139.217 63.2312C139.217 65.6792 140.945 67.3912 143.265 67.3912ZM143.265 65.9192C141.873 65.9192 140.817 64.8472 140.817 63.2312C140.817 61.6152 141.873 60.5432 143.265 60.5432C144.657 60.5432 145.713 61.6152 145.713 63.2312C145.713 64.8472 144.657 65.9192 143.265 65.9192ZM152.546 67.3912C154.866 67.3912 156.594 65.6792 156.594 63.2312C156.594 60.7832 154.866 59.0712 152.546 59.0712C150.226 59.0712 148.498 60.7832 148.498 63.2312C148.498 65.6792 150.226 67.3912 152.546 67.3912ZM152.546 65.9192C151.154 65.9192 150.098 64.8472 150.098 63.2312C150.098 61.6152 151.154 60.5432 152.546 60.5432C153.938 60.5432 154.994 61.6152 154.994 63.2312C154.994 64.8472 153.938 65.9192 152.546 65.9192ZM159.972 55.2312H158.372V67.2312H159.972V63.0232L163.796 67.2312H165.828L161.78 62.8792L165.54 59.2312H163.412L159.972 62.7832V55.2312ZM173.063 64.9752C173.063 61.7112 168.183 63.1352 168.183 61.3592C168.183 60.7192 168.759 60.3512 169.623 60.3512C170.551 60.3512 171.239 60.9112 171.239 61.6792H172.903C172.903 60.2072 171.495 59.0712 169.623 59.0712C167.895 59.0712 166.567 59.9672 166.567 61.4232C166.567 64.6392 171.415 63.1032 171.415 65.0392C171.415 65.7592 170.839 66.1272 169.863 66.1272C168.839 66.1272 168.071 65.6312 168.071 64.6552H166.407C166.407 66.3992 167.895 67.3912 169.863 67.3912C171.719 67.3912 173.063 66.4792 173.063 64.9752Z" fill="white"/>
<path d="M19.5433 3.58958C19.5427 2.27593 20.0068 1.00442 20.8535 0L3.58958 0C2.63757 0 1.72454 0.378187 1.05136 1.05136C0.378187 1.72454 0 2.63757 0 3.58958C0 4.5416 0.378187 5.45463 1.05136 6.1278C1.72454 6.80098 2.63757 7.17917 3.58958 7.17917H20.8535C20.0071 6.17457 19.5431 4.90318 19.5433 3.58958V3.58958Z" fill="white"/>
<path d="M22.8514 29.7737L14.2185 14.8171C13.8282 15.8953 13.1155 16.8272 12.1771 17.4862C11.2388 18.1452 10.1203 18.4993 8.9737 18.5004C8.64606 18.4994 8.31912 18.47 7.99654 18.4127L16.6295 33.3693C16.8652 33.7776 17.179 34.1354 17.553 34.4224C17.927 34.7094 18.3538 34.92 18.8092 35.042C19.2646 35.164 19.7395 35.1952 20.2069 35.1337C20.6743 35.0722 21.125 34.9192 21.5333 34.6835C21.9415 34.4478 22.2994 34.134 22.5864 33.76C22.8734 33.386 23.0839 32.9591 23.206 32.5038C23.328 32.0484 23.3591 31.5735 23.2976 31.1061C23.2361 30.6387 23.0831 30.188 22.8474 29.7797L22.8514 29.7737Z" fill="white"/>
<path d="M37.6914 0.482698C36.8671 0.00645172 35.8874 -0.122852 34.9677 0.123229C34.0481 0.369311 33.2639 0.970623 32.7876 1.79489L24.1567 16.7515C24.4784 16.6924 24.8047 16.6624 25.1318 16.6618V16.6618C26.2776 16.663 27.3953 17.0168 28.3332 17.675C29.2711 18.3332 29.9838 19.264 30.3746 20.3411L39.0056 5.38447C39.481 4.56012 39.6097 3.5807 39.3632 2.66153C39.1168 1.74235 38.5155 0.958649 37.6914 0.482698V0.482698Z" fill="white"/>
<path d="M25.1274 7.18112C27.1099 7.18112 28.717 5.57401 28.717 3.59154C28.717 1.60906 27.1099 0.00195312 25.1274 0.00195312C23.145 0.00195312 21.5378 1.60906 21.5378 3.59154C21.5378 5.57401 23.145 7.18112 25.1274 7.18112Z" fill="white"/>
<path d="M11.6714 15.2856C12.9793 13.7958 12.8319 11.5278 11.342 10.2199C9.8522 8.91205 7.58416 9.05951 6.27622 10.5493C4.96828 12.0391 5.11574 14.3071 6.60558 15.615C8.09541 16.9229 10.3635 16.7754 11.6714 15.2856Z" fill="white"/>
<path d="M23.3325 25.3525C22.7177 24.9975 22.222 24.4682 21.908 23.8315C21.594 23.1948 21.4759 22.4792 21.5686 21.7754C21.6612 21.0715 21.9605 20.4109 22.4286 19.8772C22.8967 19.3434 23.5125 18.9604 24.1982 18.7766C24.884 18.5929 25.6088 18.6166 26.2811 18.8447C26.9533 19.0729 27.5428 19.4953 27.9751 20.0585C28.4073 20.6216 28.6628 21.3004 28.7093 22.0088C28.7558 22.7172 28.5912 23.4235 28.2363 24.0383C28.0006 24.4466 27.6868 24.8045 27.3129 25.0915C26.9389 25.3785 26.512 25.5891 26.0566 25.7111C25.6013 25.8331 25.1263 25.8643 24.6589 25.8028C24.1915 25.7412 23.7408 25.5882 23.3325 25.3525V25.3525Z" fill="white"/>
<path d="M58.5311 32.2925H52.4328L45.0263 10.5137H49.5571L55.4819 28.8086L61.4048 10.5137H65.9356L58.5311 32.2925Z" fill="white"/>
<path d="M73.9652 10.5137H69.6099V32.2925H73.9652V10.5137Z" fill="white"/>
<path d="M91.8926 32.729C88.9751 32.729 86.4484 31.3331 84.7493 29.0258V32.2923H80.394V0.0239258H84.7533V13.784C86.4524 11.4767 88.9791 10.0827 91.8966 10.0827C97.8633 10.0827 102.35 14.7432 102.35 21.4079C102.35 28.0725 97.8593 32.729 91.8926 32.729ZM84.7533 21.4039C84.7533 25.8031 87.5851 28.7207 91.3741 28.7207C95.1631 28.7207 97.9949 25.8031 97.9949 21.4039C97.9949 17.0047 95.1631 14.0851 91.3741 14.0851C87.5851 14.0851 84.7533 17.0047 84.7533 21.4039Z" fill="white"/>
<path d="M126.914 22.8837H109.839C110.362 26.6727 112.801 28.8963 116.458 28.8963C119.117 28.8963 120.859 27.7197 121.731 25.7594H126.433C125.083 30.2464 121.294 32.7391 116.285 32.7391C110.103 32.7391 105.57 28.0787 105.57 21.414C105.57 14.7493 110.101 10.0889 116.285 10.0889C122.469 10.0889 127 14.7493 127 21.414C127 21.9365 126.958 22.4051 126.914 22.8837ZM109.881 19.7429H122.688C122.166 16.0835 119.771 13.9058 116.285 13.9058C112.757 13.9118 110.404 16.0895 109.881 19.7429Z" fill="white"/>
<path d="M71.7939 7.17917C73.7763 7.17917 75.3834 5.57206 75.3834 3.58958C75.3834 1.60711 73.7763 0 71.7939 0C69.8114 0 68.2043 1.60711 68.2043 3.58958C68.2043 5.57206 69.8114 7.17917 71.7939 7.17917Z" fill="white"/>
</svg>
