<svg width="564" height="652" viewBox="0 0 564 652" fill="none" xmlns="http://www.w3.org/2000/svg">
<path fill-rule="evenodd" clip-rule="evenodd" d="M450.354 33.0435L450.401 33.0168L754.854 560.346L635.089 629.492L333.729 107.521C326.415 96.5486 322.152 83.3682 322.152 69.1922C322.152 30.9784 353.13 0 391.344 0C416.309 0 438.186 13.2211 450.354 33.0435ZM245.531 649.002L10.1421 241.297L10.1518 241.291C3.71223 230.782 0 218.421 0 205.192C0 166.978 30.9784 136 69.1922 136C95.423 136 118.245 150.596 129.978 172.11L130.021 172.085L365.409 579.79L245.531 649.002ZM241.276 303.072L241.257 303.039L241.258 303.039C236.053 293.32 233.101 282.213 233.101 270.417C233.101 232.203 264.079 201.224 302.293 201.224C329.155 201.224 352.442 216.532 363.907 238.9L562.118 582.212L442.357 651.355L243.44 306.82C242.681 305.596 241.959 304.346 241.276 303.072Z" fill="white" fill-opacity="0.5"/>
</svg>
