<svg width="240" height="205" viewBox="0 0 240 205" fill="none" xmlns="http://www.w3.org/2000/svg">
<g clip-path="url(#clip0)">
<path d="M25.3 94.1H84.7C91 94.1 96 89 96 82.8V23.3C96.1 17.1 91 12 84.8 12H25.3C19.1 12 14 17.1 14 23.3V82.7C14 89 19.1 94.1 25.3 94.1Z" fill="#F4F4F4"/>
<path d="M154.6 160H214C220.3 160 225.3 154.9 225.3 148.7V89.3C225.3 83 220.2 78 214 78H154.6C148.3 78 143.3 83.1 143.3 89.3V148.7C143.3 155 148.4 160 154.6 160Z" fill="#F4F4F4"/>
<path d="M93.1 91.5996L73 111.5" stroke="#66CCCC" stroke-width="8" stroke-miterlimit="10"/>
<path d="M79.8999 78.5L45.8999 112.1" stroke="#66CCCC" stroke-width="8" stroke-miterlimit="10"/>
<path d="M66.7 65.3994L34 97.6994" stroke="#66CCCC" stroke-width="8" stroke-miterlimit="10"/>
<path d="M53.5 52.2998L34 71.5998" stroke="#66CCCC" stroke-width="8" stroke-miterlimit="10"/>
<path d="M177.9 130.8C180.11 130.8 181.9 129.009 181.9 126.8C181.9 124.591 180.11 122.8 177.9 122.8C175.691 122.8 173.9 124.591 173.9 126.8C173.9 129.009 175.691 130.8 177.9 130.8Z" fill="#6666CC"/>
<path d="M193.2 130.8C195.409 130.8 197.2 129.009 197.2 126.8C197.2 124.591 195.409 122.8 193.2 122.8C190.991 122.8 189.2 124.591 189.2 126.8C189.2 129.009 190.991 130.8 193.2 130.8Z" fill="#6666CC"/>
<path d="M162.7 115.5C164.909 115.5 166.7 113.709 166.7 111.5C166.7 109.291 164.909 107.5 162.7 107.5C160.491 107.5 158.7 109.291 158.7 111.5C158.7 113.709 160.491 115.5 162.7 115.5Z" fill="#6666CC"/>
<path d="M177.9 115.5C180.11 115.5 181.9 113.709 181.9 111.5C181.9 109.291 180.11 107.5 177.9 107.5C175.691 107.5 173.9 109.291 173.9 111.5C173.9 113.709 175.691 115.5 177.9 115.5Z" fill="#6666CC"/>
<path d="M193.2 115.5C195.409 115.5 197.2 113.709 197.2 111.5C197.2 109.291 195.409 107.5 193.2 107.5C190.991 107.5 189.2 109.291 189.2 111.5C189.2 113.709 190.991 115.5 193.2 115.5Z" fill="#6666CC"/>
<path d="M193.2 146.1C195.409 146.1 197.2 144.309 197.2 142.1C197.2 139.89 195.409 138.1 193.2 138.1C190.991 138.1 189.2 139.89 189.2 142.1C189.2 144.309 190.991 146.1 193.2 146.1Z" fill="#6666CC"/>
<path d="M141.3 174.8H196.7C203 174.8 208 169.7 208 163.5V108C208 101.7 202.9 96.7002 196.7 96.7002H141.3C135 96.7002 130 101.8 130 108V163.4C130 169.7 135.1 174.8 141.3 174.8Z" stroke="#66CCCC" stroke-width="8" stroke-miterlimit="10"/>
<path d="M135.2 101.101L203.7 169.601" stroke="#66CCCC" stroke-width="8" stroke-miterlimit="10"/>
<path d="M45.3 111.1H100.7C107 111.1 112 106 112 99.8V44.3C112.1 38 107 33 100.7 33H45.3C39 33 34 38 34 44.3V99.7C34 106 39 111.1 45.3 111.1Z" stroke="#6666CC" stroke-width="8" stroke-miterlimit="10"/>
<path d="M39.1001 37.4004L107.6 105.9" stroke="#6666CC" stroke-width="8" stroke-miterlimit="10"/>
</g>
<defs>
<clipPath id="clip0">
<rect x="14" y="12" width="211.4" height="166.8" fill="white"/>
</clipPath>
</defs>
</svg>
