<svg width="212" height="167" viewBox="0 0 212 167" fill="none" xmlns="http://www.w3.org/2000/svg">
<g clip-path="url(#clip0)">
<path d="M11.3 82.1H70.7C77 82.1 82 77 82 70.8V11.3C82.1 5.1 77 0 70.8 0H11.3C5.1 0 0 5.1 0 11.3V70.7C0 77 5.1 82.1 11.3 82.1Z" fill="#F4F4F4"/>
<path d="M140.6 148H200C206.3 148 211.3 142.9 211.3 136.7V77.3C211.3 71 206.2 66 200 66H140.6C134.3 66 129.3 71.1 129.3 77.3V136.7C129.3 143 134.4 148 140.6 148Z" fill="#F4F4F4"/>
<path d="M79.1 79.5996L59 99.4996" stroke="#66CCCC" stroke-width="8" stroke-miterlimit="10"/>
<path d="M65.8999 66.5L31.8999 100.1" stroke="#66CCCC" stroke-width="8" stroke-miterlimit="10"/>
<path d="M52.7 53.3994L20 85.6994" stroke="#66CCCC" stroke-width="8" stroke-miterlimit="10"/>
<path d="M39.5 40.2998L20 59.5998" stroke="#66CCCC" stroke-width="8" stroke-miterlimit="10"/>
<path d="M163.9 118.8C166.11 118.8 167.9 117.009 167.9 114.8C167.9 112.591 166.11 110.8 163.9 110.8C161.691 110.8 159.9 112.591 159.9 114.8C159.9 117.009 161.691 118.8 163.9 118.8Z" fill="#6666CC"/>
<path d="M179.2 118.8C181.409 118.8 183.2 117.009 183.2 114.8C183.2 112.591 181.409 110.8 179.2 110.8C176.991 110.8 175.2 112.591 175.2 114.8C175.2 117.009 176.991 118.8 179.2 118.8Z" fill="#6666CC"/>
<path d="M148.7 103.5C150.909 103.5 152.7 101.709 152.7 99.5C152.7 97.2909 150.909 95.5 148.7 95.5C146.491 95.5 144.7 97.2909 144.7 99.5C144.7 101.709 146.491 103.5 148.7 103.5Z" fill="#6666CC"/>
<path d="M163.9 103.5C166.11 103.5 167.9 101.709 167.9 99.5C167.9 97.2909 166.11 95.5 163.9 95.5C161.691 95.5 159.9 97.2909 159.9 99.5C159.9 101.709 161.691 103.5 163.9 103.5Z" fill="#6666CC"/>
<path d="M179.2 103.5C181.409 103.5 183.2 101.709 183.2 99.5C183.2 97.2909 181.409 95.5 179.2 95.5C176.991 95.5 175.2 97.2909 175.2 99.5C175.2 101.709 176.991 103.5 179.2 103.5Z" fill="#6666CC"/>
<path d="M179.2 134.1C181.409 134.1 183.2 132.309 183.2 130.1C183.2 127.89 181.409 126.1 179.2 126.1C176.991 126.1 175.2 127.89 175.2 130.1C175.2 132.309 176.991 134.1 179.2 134.1Z" fill="#6666CC"/>
<path d="M127.3 162.8H182.7C189 162.8 194 157.7 194 151.5V96.0002C194 89.7002 188.9 84.7002 182.7 84.7002H127.3C121 84.7002 116 89.8002 116 96.0002V151.4C116 157.7 121.1 162.8 127.3 162.8Z" stroke="#66CCCC" stroke-width="8" stroke-miterlimit="10"/>
<path d="M121.2 89.1006L189.7 157.601" stroke="#66CCCC" stroke-width="8" stroke-miterlimit="10"/>
<path d="M31.3 99.1H86.7C93 99.1 98 94 98 87.8V32.3C98.1 26 93 21 86.7 21H31.3C25 21 20 26 20 32.3V87.7C20 94 25 99.1 31.3 99.1Z" stroke="#6666CC" stroke-width="8" stroke-miterlimit="10"/>
<path d="M25.1001 25.4004L93.6001 93.9004" stroke="#6666CC" stroke-width="8" stroke-miterlimit="10"/>
</g>
<defs>
<clipPath id="clip0">
<rect width="211.4" height="166.8" fill="white"/>
</clipPath>
</defs>
</svg>
