<svg width="219" height="194" viewBox="0 0 219 194" fill="none" xmlns="http://www.w3.org/2000/svg">
<g clip-path="url(#clip0)">
<path d="M0 62.1001C0.1 88.4001 0.1 114.7 0.2 141C0.2 157.1 24.8 161 28.7 144.9C38.9 102.5 50.2 60.4001 62.6 18.6001C54.5 20.7001 46.4 22.9001 38.4 25.0001C37.4 23.7001 38.1 24.9001 38.2 25.9001C38.3 26.5001 39.4 31.4001 39.1 29.8001C39.8 34.4001 39.8 39.2001 40 43.8001C40.6 54.0001 41 64.2001 41.3 74.4001C42 95.1001 42.4 115.8 42.5 136.6C42.5 144.4 49.1 151.1 57 151.1C65.7 151.1 70.5 144.4 71.5 136.6C76.5 97.4001 83.6 58.4001 92.8 19.9001C83.5 19.9001 74.2 19.9001 64.8 19.9001C72.8 55.7001 77.2 91.9001 78.4 128.6C78.7 136.4 84.9 143.1 92.9 143.1C101.3 143.1 106.7 136.4 107.4 128.6C110.6 91.7001 117.7 55.1001 129 19.6001C119.7 19.6001 110.4 19.6001 101 19.6001C107 52.6001 110.4 85.9001 111.7 119.5C112 127.3 118.1 134 126.2 134C134.3 134 140.5 127.4 140.7 119.5C141.7 86.4001 146.5 54.2001 156 22.3001C146.7 22.3001 137.4 22.3001 128 22.3001C134.9 54.6001 139.2 87.3001 140.9 120.3C141.3 128.1 147.3 134.8 155.4 134.8C163.2 134.8 170 128.2 169.9 120.3C169.9 118.4 169.9 116.4 169.8 114.5C169.7 106.7 163.2 100 155.3 100C147.5 100 140.7 106.6 140.8 114.5C140.8 116.4 140.8 118.4 140.9 120.3C150.6 120.3 160.2 120.3 169.9 120.3C168 84.8001 163.4 49.4001 156 14.6001C152.9 0.100121 131.9 1.50012 128 14.6001C117.9 48.6001 112.8 84.1001 111.7 119.5C121.4 119.5 131 119.5 140.7 119.5C139.3 83.4001 135.3 47.5001 128.9 11.9001C127.8 5.70012 120.9 1.30012 114.9 1.30012C108.4 1.30012 102.9 5.80012 100.9 11.9001C89 49.7001 81.9 89.0001 78.4 128.5C88.1 128.5 97.7 128.5 107.4 128.5C106.1 89.4001 101.2 50.3001 92.7 12.1001C89.6 -1.79988 68 -1.59988 64.7 12.1001C55 53.1001 47.7 94.7001 42.4 136.5C52.1 136.5 61.7 136.5 71.4 136.5C71.3 113.8 70.9 91.1001 70 68.4001C69.6 57.4001 69.2 46.4001 68.5 35.4001C67.7 23.9001 65.9 13.7001 58.7 4.40012C51.7 -4.59988 37.3 1.40012 34.5 10.8001C22.2 52.7001 10.9 94.8001 0.7 137.2C10.2 138.5 19.7 139.8 29.2 141.1C29.1 114.8 29.1 88.5001 29 62.2001C29 54.4001 22.3 47.7001 14.5 47.7001C6.7 47.6001 0 54.2001 0 62.1001Z" fill="#F4F4F4"/>
<path d="M58.3998 193.5C70.3292 193.5 79.9998 183.829 79.9998 171.9C79.9998 159.97 70.3292 150.3 58.3998 150.3C46.4705 150.3 36.7998 159.97 36.7998 171.9C36.7998 183.829 46.4705 193.5 58.3998 193.5Z" fill="white"/>
<path d="M63.9998 191.2C76.5367 191.2 86.6998 181.037 86.6998 168.5C86.6998 155.963 76.5367 145.8 63.9998 145.8C51.4629 145.8 41.2998 155.963 41.2998 168.5C41.2998 181.037 51.4629 191.2 63.9998 191.2Z" fill="white"/>
<path d="M69.5999 188.9C82.689 188.9 93.2999 178.289 93.2999 165.2C93.2999 152.111 82.689 141.5 69.5999 141.5C56.5108 141.5 45.8999 152.111 45.8999 165.2C45.8999 178.289 56.5108 188.9 69.5999 188.9Z" fill="white"/>
<path d="M75.2 186.501C88.8414 186.501 99.9 175.442 99.9 161.801C99.9 148.159 88.8414 137.101 75.2 137.101C61.5586 137.101 50.5 148.159 50.5 161.801C50.5 175.442 61.5586 186.501 75.2 186.501Z" fill="white"/>
<path d="M80.7996 184.1C94.9933 184.1 106.5 172.594 106.5 158.4C106.5 144.206 94.9933 132.7 80.7996 132.7C66.6059 132.7 55.0996 144.206 55.0996 158.4C55.0996 172.594 66.6059 184.1 80.7996 184.1Z" fill="white"/>
<path d="M86.3997 181.8C101.146 181.8 113.1 169.846 113.1 155.1C113.1 140.354 101.146 128.4 86.3997 128.4C71.6537 128.4 59.6997 140.354 59.6997 155.1C59.6997 169.846 71.6537 181.8 86.3997 181.8Z" fill="white"/>
<path d="M91.9998 179.4C107.298 179.4 119.7 166.998 119.7 151.7C119.7 136.402 107.298 124 91.9998 124C76.7015 124 64.2998 136.402 64.2998 151.7C64.2998 166.998 76.7015 179.4 91.9998 179.4Z" fill="white"/>
<path d="M97.5999 177.001C113.45 177.001 126.3 164.151 126.3 148.301C126.3 132.45 113.45 119.601 97.5999 119.601C81.7493 119.601 68.8999 132.45 68.8999 148.301C68.8999 164.151 81.7493 177.001 97.5999 177.001Z" fill="white"/>
<path d="M103.2 174.6C119.603 174.6 132.9 161.303 132.9 144.9C132.9 128.497 119.603 115.2 103.2 115.2C86.7971 115.2 73.5 128.497 73.5 144.9C73.5 161.303 86.7971 174.6 103.2 174.6Z" fill="white"/>
<path d="M108.8 172.3C125.755 172.3 139.5 158.556 139.5 141.6C139.5 124.645 125.755 110.9 108.8 110.9C91.8445 110.9 78.0996 124.645 78.0996 141.6C78.0996 158.556 91.8445 172.3 108.8 172.3Z" fill="white"/>
<path d="M114.4 170C131.962 170 146.2 155.763 146.2 138.2C146.2 120.638 131.962 106.4 114.4 106.4C96.837 106.4 82.5996 120.638 82.5996 138.2C82.5996 155.763 96.837 170 114.4 170Z" fill="white"/>
<path d="M120 167.6C138.115 167.6 152.8 152.915 152.8 134.8C152.8 116.685 138.115 102 120 102C101.885 102 87.1997 116.685 87.1997 134.8C87.1997 152.915 101.885 167.6 120 167.6Z" fill="white"/>
<path d="M125.6 165.201C144.267 165.201 159.4 150.068 159.4 131.401C159.4 112.733 144.267 97.6006 125.6 97.6006C106.933 97.6006 91.7998 112.733 91.7998 131.401C91.7998 150.068 106.933 165.201 125.6 165.201Z" fill="white"/>
<path d="M131.2 162.9C150.419 162.9 166 147.319 166 128.1C166 108.88 150.419 93.2998 131.2 93.2998C111.98 93.2998 96.3999 108.88 96.3999 128.1C96.3999 147.319 111.98 162.9 131.2 162.9Z" fill="white"/>
<path d="M136.8 160.5C156.572 160.5 172.6 144.472 172.6 124.7C172.6 104.929 156.572 88.9004 136.8 88.9004C117.028 88.9004 101 104.929 101 124.7C101 144.472 117.028 160.5 136.8 160.5Z" fill="white"/>
<path d="M142.4 158.1C162.724 158.1 179.2 141.624 179.2 121.3C179.2 100.976 162.724 84.5 142.4 84.5C122.076 84.5 105.6 100.976 105.6 121.3C105.6 141.624 122.076 158.1 142.4 158.1Z" fill="white"/>
<path d="M148 155.701C168.876 155.701 185.8 138.777 185.8 117.901C185.8 97.0242 168.876 80.1006 148 80.1006C127.123 80.1006 110.2 97.0242 110.2 117.901C110.2 138.777 127.123 155.701 148 155.701Z" fill="white"/>
<path d="M153.6 153.4C175.028 153.4 192.4 136.028 192.4 114.6C192.4 93.1712 175.028 75.7998 153.6 75.7998C132.171 75.7998 114.8 93.1712 114.8 114.6C114.8 136.028 132.171 153.4 153.6 153.4Z" fill="white"/>
<path d="M159.1 151C181.081 151 198.9 133.181 198.9 111.2C198.9 89.2195 181.081 71.4004 159.1 71.4004C137.119 71.4004 119.3 89.2195 119.3 111.2C119.3 133.181 137.119 151 159.1 151Z" fill="white"/>
<path d="M164.7 148.7C187.288 148.7 205.6 130.389 205.6 107.8C205.6 85.2119 187.288 66.9004 164.7 66.9004C142.111 66.9004 123.8 85.2119 123.8 107.8C123.8 130.389 142.111 148.7 164.7 148.7Z" fill="white"/>
<path d="M170.3 146.401C193.441 146.401 212.2 127.641 212.2 104.501C212.2 81.3599 193.441 62.6006 170.3 62.6006C147.159 62.6006 128.4 81.3599 128.4 104.501C128.4 127.641 147.159 146.401 170.3 146.401Z" fill="white"/>
<path d="M175.9 144C199.593 144 218.8 124.793 218.8 101.1C218.8 77.4072 199.593 58.2002 175.9 58.2002C152.207 58.2002 133 77.4072 133 101.1C133 124.793 152.207 144 175.9 144Z" fill="white"/>
<path d="M58.1 193.5C70.0294 193.5 79.7 183.829 79.7 171.9C79.7 159.97 70.0294 150.3 58.1 150.3C46.1706 150.3 36.5 159.97 36.5 171.9C36.5 183.829 46.1706 193.5 58.1 193.5Z" fill="white"/>
<path d="M58.5 172.3C58.3 172 58.4 171.5 58.7 171.3L148.1 104.4L160 121.9L59.5 172.6C59.2 172.7 58.7 172.6 58.5 172.3Z" fill="#66CCCC"/>
<path d="M175.9 139.7C197.439 139.7 214.9 122.239 214.9 100.7C214.9 79.1611 197.439 61.7002 175.9 61.7002C154.361 61.7002 136.9 79.1611 136.9 100.7C136.9 122.239 154.361 139.7 175.9 139.7Z" fill="white" stroke="#6666CC" stroke-width="8" stroke-miterlimit="10"/>
<path d="M180.6 107.1L165.3 91.8002L173.7 83.4002C175.8 81.3002 179.3 81.3002 181.4 83.4002L189 91.0002C190 92.0002 190.6 93.4002 190.6 94.9002C190.6 96.4002 190 97.7002 189 98.8002L180.6 107.1ZM170 91.8002L180.6 102.4L186.6 96.4002C187 96.0002 187.2 95.4002 187.2 94.9002C187.2 94.4002 187 93.8002 186.6 93.4002L179 85.8002C178.2 85.0002 176.8 85.0002 175.9 85.8002L170 91.8002Z" fill="#66CCCC"/>
<path d="M174.3 112.7L178.1 108.9L163.6 94.4004L158.4 99.6004C157.2 100.8 157.2 102.7 158.4 103.8L167.3 112.7H174.3Z" fill="#66CCCC"/>
<path d="M184.2 119.7H169.2C168.3 119.7 167.5 119 167.5 118C167.5 117.1 168.2 116.3 169.2 116.3H184.2C185.1 116.3 185.9 117 185.9 118C185.8 118.9 185.1 119.7 184.2 119.7Z" fill="#66CCCC"/>
<path d="M192.8 119.7H190C189.1 119.7 188.3 119 188.3 118C188.3 117.1 189 116.3 190 116.3H192.8C193.7 116.3 194.5 117 194.5 118C194.5 118.9 193.7 119.7 192.8 119.7Z" fill="#66CCCC"/>
<path d="M58.1 176.3L54.7 170.8L67.3 161.8C64.9 159.6 61.7 158.2 58.1 158.2C50.6 158.2 44.5 164.3 44.5 171.8C44.5 179.3 50.6 185.4 58.1 185.4C65.6 185.4 71.7 179.3 71.7 171.8C71.7 170.9 71.6 169.9 71.4 169.1L58.1 176.3Z" fill="white"/>
<path d="M71.5001 169.2C71.7001 170.1 71.8001 171 71.8001 171.9C71.8001 179.4 65.7001 185.5 58.2001 185.5C50.7001 185.5 44.6001 179.4 44.6001 171.9C44.6001 164.4 50.7001 158.3 58.2001 158.3C61.7001 158.3 65.0001 159.7 67.4001 161.9L74.0001 157.2C70.0001 153 64.4001 150.4 58.2001 150.4C46.3001 150.4 36.6001 160.1 36.6001 172C36.6001 183.9 46.3001 193.6 58.2001 193.6C70.1001 193.6 79.8001 183.9 79.8001 172C79.8001 169.7 79.4001 167.5 78.8001 165.4L71.5001 169.2Z" fill="#6666CC"/>
<path d="M58.1 185.6C50.6 185.6 44.5 179.5 44.5 172C44.5 164.5 50.6 158.4 58.1 158.4C50.6 158.4 44.5 164.5 44.5 172C44.5 179.5 50.6 185.6 58.1 185.6C65.6 185.6 71.7 179.5 71.7 172C71.8 179.5 65.6 185.6 58.1 185.6Z" fill="#6666CC"/>
<path d="M67.3001 161.8C64.9001 159.6 61.7001 158.2 58.1001 158.2C61.7001 158.3 64.9001 159.6 67.3001 161.8Z" fill="#6666CC"/>
<path d="M71.8 171.9C71.8 171 71.7 170 71.5 169.2C71.7 170.1 71.8 171 71.8 171.9Z" fill="#6666CC"/>
</g>
<defs>
<clipPath id="clip0">
<rect width="218.9" height="193.6" fill="white"/>
</clipPath>
</defs>
</svg>
