<svg width="240" height="205" viewBox="0 0 240 205" fill="none" xmlns="http://www.w3.org/2000/svg">
<g clip-path="url(#clip0)">
<path d="M20.9559 162.752L190.34 162.752L190.34 18.043L20.9559 18.043L20.9559 162.752Z" fill="#F4F4F4"/>
<path d="M123.841 47.819C126.138 47.819 128 45.9423 128 43.6272C128 41.3122 126.138 39.4355 123.841 39.4355C121.544 39.4355 119.682 41.3122 119.682 43.6272C119.682 45.9423 121.544 47.819 123.841 47.819Z" fill="#66CCCC"/>
<path d="M139.437 47.819C141.734 47.819 143.596 45.9423 143.596 43.6272C143.596 41.3122 141.734 39.4355 139.437 39.4355C137.14 39.4355 135.278 41.3122 135.278 43.6272C135.278 45.9423 137.14 47.819 139.437 47.819Z" fill="#66CCCC"/>
<path d="M155.127 47.819C157.424 47.819 159.286 45.9423 159.286 43.6272C159.286 41.3122 157.424 39.4355 155.127 39.4355C152.831 39.4355 150.969 41.3122 150.969 43.6272C150.969 45.9423 152.831 47.819 155.127 47.819Z" fill="#66CCCC"/>
<path d="M38.4868 95.7376V36.0059H108.528" stroke="#66CCCC" stroke-width="8" stroke-miterlimit="10" stroke-linejoin="round"/>
<path d="M193.031 177.19H46.1431V95.7373" stroke="#6666CC" stroke-width="8" stroke-miterlimit="10" stroke-linejoin="round"/>
<path d="M212.219 51.3438V157.851" stroke="#6666CC" stroke-width="8" stroke-miterlimit="10" stroke-linejoin="round"/>
<path d="M173.938 157.851V51.3438" stroke="#6666CC" stroke-width="8" stroke-miterlimit="10" stroke-linejoin="round"/>
<path d="M173.938 51.3439C173.938 40.6741 182.539 32.0049 193.126 32.0049C203.712 32.0049 212.314 40.6741 212.314 51.3439" stroke="#6666CC" stroke-width="8" stroke-miterlimit="10" stroke-linejoin="round"/>
<path d="M173.938 157.851C173.938 147.181 182.539 138.512 193.126 138.512C203.712 138.512 212.314 147.181 212.314 157.851C212.314 168.52 203.712 177.19 193.126 177.19" stroke="#6666CC" stroke-width="8" stroke-miterlimit="10" stroke-linejoin="round"/>
<path d="M141.705 116.981H79.0369" stroke="#6666CC" stroke-width="8" stroke-miterlimit="10"/>
<path d="M123.462 138.226L141.705 116.982L123.462 95.7373" stroke="#6666CC" stroke-width="8" stroke-miterlimit="10"/>
</g>
<defs>
<clipPath id="clip0">
<rect x="21" y="18" width="195" height="163" fill="white"/>
</clipPath>
</defs>
</svg>
