<svg width="240" height="205" viewBox="0 0 240 205" fill="none" xmlns="http://www.w3.org/2000/svg">
<path d="M219.474 61.0645H81.7871V199H219.474V61.0645Z" fill="#F4F4F4"/>
<path d="M166.685 12.541H28V151.476H166.685V12.541Z" fill="#F4F4F4"/>
<path d="M228.091 52.5225H90.4038V190.458H228.091V52.5225Z" fill="white"/>
<path d="M175.211 4H36.5259V142.935H175.211V4Z" fill="white"/>
<path d="M120.698 14.3584C120.245 14.7219 119.701 14.9945 119.247 15.4488" stroke="#66CCCC" stroke-width="3" stroke-linecap="round" stroke-linejoin="round"/>
<path d="M114.893 18.9021C108.272 24.6267 101.016 32.8047 98.6575 38.5293C98.0225 40.074 97.569 41.7096 97.2062 43.2543C93.7595 60.9733 110.358 77.602 128.227 77.7837C148.091 77.9654 162.512 60.4281 156.979 40.8918C154.077 30.6239 145.369 22.1733 135.029 19.5381C129.315 18.0843 120.608 19.0838 113.442 19.3564" stroke="#66CCCC" stroke-width="3" stroke-linecap="round" stroke-linejoin="round" stroke-dasharray="4.08 4.08"/>
<path d="M110.63 19.3564C109.996 19.3564 109.361 19.3564 108.816 19.3564" stroke="#66CCCC" stroke-width="3" stroke-linecap="round" stroke-linejoin="round"/>
<path d="M129.224 121.672C106.458 118.764 81.6959 119.037 58.748 119.946C60.4714 98.9553 58.2038 75.7843 60.1993 53.8854C68.0904 53.7945 69.6324 52.2498 77.5236 52.1589C84.5984 52.0681 95.4827 53.7037 102.558 53.6128C107.546 53.5219 115.075 53.2493 120.063 53.1585C121.877 53.1585 123.782 53.1585 125.143 54.3397C126.866 55.7936 127.229 58.247 126.957 60.4278C124.417 84.7801 125.778 104.135 125.778 126.397" stroke="#66CCCC" stroke-width="3" stroke-miterlimit="10" stroke-linecap="round" stroke-linejoin="round" stroke-dasharray="4 4"/>
<path d="M184.462 128.033C201.644 128.033 215.573 114.079 215.573 96.8655C215.573 79.6523 201.644 65.6982 184.462 65.6982C167.28 65.6982 153.351 79.6523 153.351 96.8655C153.351 114.079 167.28 128.033 184.462 128.033Z" stroke="#6666CC" stroke-width="8" stroke-miterlimit="10"/>
<path d="M114.607 167.17L181.637 167.17L181.637 100.019L114.607 100.019L114.607 167.17Z" stroke="#6666CC" stroke-width="8" stroke-miterlimit="10" stroke-linejoin="round"/>
</svg>
