<svg width="201" height="195" viewBox="0 0 201 195" fill="none" xmlns="http://www.w3.org/2000/svg">
<path d="M191.474 57.0645H53.7871V195H191.474V57.0645Z" fill="#F4F4F4"/>
<path d="M138.685 8.54102H0V147.476H138.685V8.54102Z" fill="#F4F4F4"/>
<path d="M200.091 48.5225H62.4038V186.458H200.091V48.5225Z" fill="white"/>
<path d="M147.211 0H8.52588V138.935H147.211V0Z" fill="white"/>
<path d="M92.6983 10.3584C92.2448 10.7219 91.7006 10.9945 91.2471 11.4488" stroke="#66CCCC" stroke-width="3" stroke-linecap="round" stroke-linejoin="round"/>
<path d="M86.8933 14.9021C80.272 20.6267 73.0157 28.8047 70.6575 34.5293C70.0225 36.074 69.569 37.7096 69.2062 39.2543C65.7595 56.9733 82.3581 73.602 100.227 73.7837C120.091 73.9654 134.512 56.4281 128.979 36.8918C126.077 26.6239 117.369 18.1733 107.029 15.5381C101.315 14.0843 92.6076 15.0838 85.442 15.3564" stroke="#66CCCC" stroke-width="3" stroke-linecap="round" stroke-linejoin="round" stroke-dasharray="4.08 4.08"/>
<path d="M82.6305 15.3564C81.9955 15.3564 81.3606 15.3564 80.8164 15.3564" stroke="#66CCCC" stroke-width="3" stroke-linecap="round" stroke-linejoin="round"/>
<path d="M101.224 117.672C78.4578 114.764 53.6959 115.037 30.748 115.946C32.4714 94.9553 30.2038 71.7843 32.1993 49.8854C40.0904 49.7945 41.6324 48.2498 49.5236 48.1589C56.5984 48.0681 67.4827 49.7037 74.5576 49.6128C79.5462 49.5219 87.0746 49.2493 92.0632 49.1585C93.8773 49.1585 95.7821 49.1585 97.1426 50.3397C98.866 51.7936 99.2288 54.247 98.9567 56.4278C96.417 80.7801 97.7775 100.135 97.7775 122.397" stroke="#66CCCC" stroke-width="3" stroke-miterlimit="10" stroke-linecap="round" stroke-linejoin="round" stroke-dasharray="4 4"/>
<path d="M156.462 124.033C173.644 124.033 187.573 110.079 187.573 92.8655C187.573 75.6523 173.644 61.6982 156.462 61.6982C139.28 61.6982 125.351 75.6523 125.351 92.8655C125.351 110.079 139.28 124.033 156.462 124.033Z" stroke="#6666CC" stroke-width="8" stroke-miterlimit="10"/>
<path d="M86.6072 163.17L153.637 163.17L153.637 96.0194L86.6072 96.0194L86.6072 163.17Z" stroke="#6666CC" stroke-width="8" stroke-miterlimit="10" stroke-linejoin="round"/>
</svg>
