<svg width="240" height="205" viewBox="0 0 240 205" fill="none" xmlns="http://www.w3.org/2000/svg">
<g clip-path="url(#clip0)">
<path d="M60.14 60.674C70.1549 60.674 78.2735 52.5432 78.2735 42.5133C78.2735 32.4834 70.1549 24.3525 60.14 24.3525C50.1252 24.3525 42.0066 32.4834 42.0066 42.5133C42.0066 52.5432 50.1252 60.674 60.14 60.674Z" stroke="#F4F4F4" stroke-width="5" stroke-miterlimit="10"/>
<path d="M60.14 45.901C62.008 45.901 63.5224 44.3843 63.5224 42.5135C63.5224 40.6426 62.008 39.126 60.14 39.126C58.2719 39.126 56.7576 40.6426 56.7576 42.5135C56.7576 44.3843 58.2719 45.901 60.14 45.901Z" fill="#6666CC"/>
<path d="M59.9521 120.708C69.9669 120.708 78.0855 112.577 78.0855 102.547C78.0855 92.5175 69.9669 84.3867 59.9521 84.3867C49.9372 84.3867 41.8186 92.5175 41.8186 102.547C41.8186 112.577 49.9372 120.708 59.9521 120.708Z" stroke="#F4F4F4" stroke-width="6" stroke-miterlimit="10"/>
<path d="M59.9521 108.57C63.2731 108.57 65.9653 105.874 65.9653 102.548C65.9653 99.2216 63.2731 96.5254 59.9521 96.5254C56.6312 96.5254 53.939 99.2216 53.939 102.548C53.939 105.874 56.6312 108.57 59.9521 108.57Z" fill="#6666CC"/>
<path d="M60.14 180.648C70.1549 180.648 78.2735 172.517 78.2735 162.487C78.2735 152.457 70.1549 144.326 60.14 144.326C50.1252 144.326 42.0066 152.457 42.0066 162.487C42.0066 172.517 50.1252 180.648 60.14 180.648Z" stroke="#F4F4F4" stroke-width="5" stroke-miterlimit="10"/>
<path d="M60.1399 173.779C66.3668 173.779 71.4146 168.723 71.4146 162.487C71.4146 156.251 66.3668 151.195 60.1399 151.195C53.9131 151.195 48.8652 156.251 48.8652 162.487C48.8652 168.723 53.9131 173.779 60.1399 173.779Z" fill="#6666CC"/>
<path d="M177.773 119.391C187.061 119.391 194.591 111.85 194.591 102.547C194.591 93.2451 187.061 85.7041 177.773 85.7041C168.484 85.7041 160.955 93.2451 160.955 102.547C160.955 111.85 168.484 119.391 177.773 119.391Z" fill="#9D9D9C"/>
<path d="M177.773 87.0212C186.323 87.0212 193.181 93.9843 193.181 102.453C193.181 110.922 186.229 117.885 177.773 117.885C169.223 117.885 162.364 110.922 162.364 102.453C162.364 93.9843 169.223 87.0212 177.773 87.0212ZM177.773 84.1982C167.719 84.1982 159.545 92.3847 159.545 102.453C159.545 112.521 167.719 120.802 177.773 120.802C187.826 120.802 196 112.616 196 102.547C196 92.4788 187.826 84.1982 177.773 84.1982Z" fill="#F4F4F4"/>
<path d="M177.773 59.3567C187.061 59.3567 194.591 51.8156 194.591 42.5133C194.591 33.211 187.061 25.6699 177.773 25.6699C168.484 25.6699 160.955 33.211 160.955 42.5133C160.955 51.8156 168.484 59.3567 177.773 59.3567Z" fill="#111111"/>
<path d="M177.773 27.0817C186.323 27.0817 193.181 34.0449 193.181 42.5136C193.181 50.9823 186.229 57.9455 177.773 57.9455C169.223 57.9455 162.364 50.9823 162.364 42.5136C162.364 34.0449 169.223 27.0817 177.773 27.0817ZM177.773 24.2588C167.719 24.2588 159.545 32.4452 159.545 42.5136C159.545 52.582 167.719 60.7684 177.773 60.7684C187.826 60.7684 196 52.582 196 42.5136C196 32.4452 187.826 24.2588 177.773 24.2588Z" fill="#F4F4F4"/>
<path d="M177.773 179.33C187.061 179.33 194.591 171.789 194.591 162.487C194.591 153.185 187.061 145.644 177.773 145.644C168.484 145.644 160.955 153.185 160.955 162.487C160.955 171.789 168.484 179.33 177.773 179.33Z" fill="white"/>
<path d="M177.773 147.055C186.323 147.055 193.181 154.019 193.181 162.487C193.181 170.956 186.229 177.919 177.773 177.919C169.223 177.919 162.364 170.956 162.364 162.487C162.364 154.019 169.223 147.055 177.773 147.055ZM177.773 144.232C167.719 144.232 159.545 152.419 159.545 162.487C159.545 172.556 167.719 180.742 177.773 180.742C187.826 180.742 196 172.556 196 162.487C196 152.419 187.826 144.232 177.773 144.232Z" fill="#F4F4F4"/>
<path d="M119.708 119.391C128.996 119.391 136.526 111.85 136.526 102.547C136.526 93.2451 128.996 85.7041 119.708 85.7041C110.42 85.7041 102.89 93.2451 102.89 102.547C102.89 111.85 110.42 119.391 119.708 119.391Z" fill="#66CCCC"/>
<path d="M119.708 87.0212C128.258 87.0212 135.117 93.9843 135.117 102.453C135.117 110.922 128.258 117.979 119.708 117.979C111.158 117.979 104.299 111.016 104.299 102.547C104.299 94.0784 111.252 87.0212 119.708 87.0212ZM119.708 84.1982C109.655 84.1982 101.48 92.3847 101.48 102.453C101.48 112.521 109.655 120.802 119.708 120.802C129.761 120.802 137.935 112.616 137.935 102.547C137.935 92.4788 129.761 84.1982 119.708 84.1982Z" fill="#F4F4F4"/>
<path d="M119.708 59.3567C128.996 59.3567 136.526 51.8156 136.526 42.5133C136.526 33.211 128.996 25.6699 119.708 25.6699C110.42 25.6699 102.89 33.211 102.89 42.5133C102.89 51.8156 110.42 59.3567 119.708 59.3567Z" fill="#6666CC"/>
<path d="M119.708 27.0817C128.258 27.0817 135.117 34.0449 135.117 42.5136C135.117 50.9823 128.258 57.9455 119.708 57.9455C111.158 57.9455 104.299 50.9823 104.299 42.5136C104.299 34.0449 111.252 27.0817 119.708 27.0817ZM119.708 24.2588C109.655 24.2588 101.48 32.4452 101.48 42.5136C101.48 52.582 109.655 60.7684 119.708 60.7684C129.761 60.7684 137.935 52.582 137.935 42.5136C137.935 32.4452 129.761 24.2588 119.708 24.2588Z" fill="#F4F4F4"/>
<path d="M119.708 179.33C128.996 179.33 136.526 171.789 136.526 162.487C136.526 153.185 128.996 145.644 119.708 145.644C110.42 145.644 102.89 153.185 102.89 162.487C102.89 171.789 110.42 179.33 119.708 179.33Z" fill="#FFCC00"/>
<path d="M119.708 147.055C128.258 147.055 135.117 154.019 135.117 162.487C135.117 170.956 128.164 177.919 119.708 177.919C111.158 177.919 104.299 170.956 104.299 162.487C104.299 154.019 111.252 147.055 119.708 147.055ZM119.708 144.232C109.655 144.232 101.48 152.419 101.48 162.487C101.48 172.556 109.655 180.742 119.708 180.742C129.761 180.742 137.935 172.556 137.935 162.487C137.935 152.419 129.761 144.232 119.708 144.232Z" fill="#F4F4F4"/>
</g>
<defs>
<clipPath id="clip0">
<rect x="39" y="22" width="157" height="161" fill="white"/>
</clipPath>
</defs>
</svg>
