<svg width="168" height="172" viewBox="0 0 168 172" fill="none" xmlns="http://www.w3.org/2000/svg">
<g clip-path="url(#clip0)">
<path d="M22.5002 41.1C33.1593 41.1 41.8002 32.4591 41.8002 21.8C41.8002 11.1409 33.1593 2.5 22.5002 2.5C11.8411 2.5 3.2002 11.1409 3.2002 21.8C3.2002 32.4591 11.8411 41.1 22.5002 41.1Z" stroke="#F4F4F4" stroke-width="5" stroke-miterlimit="10"/>
<path d="M22.5004 25.4002C24.4886 25.4002 26.1004 23.7884 26.1004 21.8002C26.1004 19.812 24.4886 18.2002 22.5004 18.2002C20.5122 18.2002 18.9004 19.812 18.9004 21.8002C18.9004 23.7884 20.5122 25.4002 22.5004 25.4002Z" fill="#6666CC"/>
<path d="M22.3 104.901C32.9591 104.901 41.6 96.2599 41.6 85.6008C41.6 74.9417 32.9591 66.3008 22.3 66.3008C11.6409 66.3008 3 74.9417 3 85.6008C3 96.2599 11.6409 104.901 22.3 104.901Z" stroke="#F4F4F4" stroke-width="6" stroke-miterlimit="10"/>
<path d="M22.2999 92.0012C25.8345 92.0012 28.6999 89.1358 28.6999 85.6012C28.6999 82.0666 25.8345 79.2012 22.2999 79.2012C18.7653 79.2012 15.8999 82.0666 15.8999 85.6012C15.8999 89.1358 18.7653 92.0012 22.2999 92.0012Z" fill="#6666CC"/>
<path d="M22.5002 168.6C33.1593 168.6 41.8002 159.959 41.8002 149.3C41.8002 138.641 33.1593 130 22.5002 130C11.8411 130 3.2002 138.641 3.2002 149.3C3.2002 159.959 11.8411 168.6 22.5002 168.6Z" stroke="#F4F4F4" stroke-width="5" stroke-miterlimit="10"/>
<path d="M22.5 161.3C29.1274 161.3 34.5 155.927 34.5 149.3C34.5 142.672 29.1274 137.3 22.5 137.3C15.8726 137.3 10.5 142.672 10.5 149.3C10.5 155.927 15.8726 161.3 22.5 161.3Z" fill="#6666CC"/>
<path d="M147.7 103.5C157.586 103.5 165.6 95.4861 165.6 85.6002C165.6 75.7143 157.586 67.7002 147.7 67.7002C137.814 67.7002 129.8 75.7143 129.8 85.6002C129.8 95.4861 137.814 103.5 147.7 103.5Z" fill="#9D9D9C"/>
<path d="M147.7 69.1006C156.8 69.1006 164.1 76.5006 164.1 85.5006C164.1 94.5006 156.7 101.901 147.7 101.901C138.6 101.901 131.3 94.5006 131.3 85.5006C131.3 76.5006 138.6 69.1006 147.7 69.1006ZM147.7 66.1006C137 66.1006 128.3 74.8006 128.3 85.5006C128.3 96.2006 137 105.001 147.7 105.001C158.4 105.001 167.1 96.3006 167.1 85.6006C167.1 74.9006 158.4 66.1006 147.7 66.1006Z" fill="#F4F4F4"/>
<path d="M147.7 39.7004C157.586 39.7004 165.6 31.6863 165.6 21.8004C165.6 11.9145 157.586 3.90039 147.7 3.90039C137.814 3.90039 129.8 11.9145 129.8 21.8004C129.8 31.6863 137.814 39.7004 147.7 39.7004Z" fill="#111111"/>
<path d="M147.7 5.40039C156.8 5.40039 164.1 12.8004 164.1 21.8004C164.1 30.8004 156.7 38.2004 147.7 38.2004C138.6 38.2004 131.3 30.8004 131.3 21.8004C131.3 12.8004 138.6 5.40039 147.7 5.40039ZM147.7 2.40039C137 2.40039 128.3 11.1004 128.3 21.8004C128.3 32.5004 137 41.2004 147.7 41.2004C158.4 41.2004 167.1 32.5004 167.1 21.8004C167.1 11.1004 158.4 2.40039 147.7 2.40039Z" fill="#F4F4F4"/>
<path d="M147.7 167.2C157.586 167.2 165.6 159.186 165.6 149.3C165.6 139.415 157.586 131.4 147.7 131.4C137.814 131.4 129.8 139.415 129.8 149.3C129.8 159.186 137.814 167.2 147.7 167.2Z" fill="white"/>
<path d="M147.7 132.9C156.8 132.9 164.1 140.3 164.1 149.3C164.1 158.3 156.7 165.7 147.7 165.7C138.6 165.7 131.3 158.3 131.3 149.3C131.3 140.3 138.6 132.9 147.7 132.9ZM147.7 129.9C137 129.9 128.3 138.6 128.3 149.3C128.3 160 137 168.7 147.7 168.7C158.4 168.7 167.1 160 167.1 149.3C167.1 138.6 158.4 129.9 147.7 129.9Z" fill="#F4F4F4"/>
<path d="M85.9 103.5C95.7859 103.5 103.8 95.4861 103.8 85.6002C103.8 75.7143 95.7859 67.7002 85.9 67.7002C76.0141 67.7002 68 75.7143 68 85.6002C68 95.4861 76.0141 103.5 85.9 103.5Z" fill="#66CCCC"/>
<path d="M85.9 69.1006C95 69.1006 102.3 76.5006 102.3 85.5006C102.3 94.5006 95 102.001 85.9 102.001C76.8 102.001 69.5 94.6006 69.5 85.6006C69.5 76.6006 76.9 69.1006 85.9 69.1006ZM85.9 66.1006C75.2 66.1006 66.5 74.8006 66.5 85.5006C66.5 96.2006 75.2 105.001 85.9 105.001C96.6 105.001 105.3 96.3006 105.3 85.6006C105.3 74.9006 96.6 66.1006 85.9 66.1006Z" fill="#F4F4F4"/>
<path d="M85.9 39.7004C95.7859 39.7004 103.8 31.6863 103.8 21.8004C103.8 11.9145 95.7859 3.90039 85.9 3.90039C76.0141 3.90039 68 11.9145 68 21.8004C68 31.6863 76.0141 39.7004 85.9 39.7004Z" fill="#6666CC"/>
<path d="M85.9 5.40039C95 5.40039 102.3 12.8004 102.3 21.8004C102.3 30.8004 95 38.2004 85.9 38.2004C76.8 38.2004 69.5 30.8004 69.5 21.8004C69.5 12.8004 76.9 5.40039 85.9 5.40039ZM85.9 2.40039C75.2 2.40039 66.5 11.1004 66.5 21.8004C66.5 32.5004 75.2 41.2004 85.9 41.2004C96.6 41.2004 105.3 32.5004 105.3 21.8004C105.3 11.1004 96.6 2.40039 85.9 2.40039Z" fill="#F4F4F4"/>
<path d="M85.9 167.2C95.7859 167.2 103.8 159.186 103.8 149.3C103.8 139.415 95.7859 131.4 85.9 131.4C76.0141 131.4 68 139.415 68 149.3C68 159.186 76.0141 167.2 85.9 167.2Z" fill="#FFCC00"/>
<path d="M85.9 132.9C95 132.9 102.3 140.3 102.3 149.3C102.3 158.3 94.9 165.7 85.9 165.7C76.8 165.7 69.5 158.3 69.5 149.3C69.5 140.3 76.9 132.9 85.9 132.9ZM85.9 129.9C75.2 129.9 66.5 138.6 66.5 149.3C66.5 160 75.2 168.7 85.9 168.7C96.6 168.7 105.3 160 105.3 149.3C105.3 138.6 96.6 129.9 85.9 129.9Z" fill="#F4F4F4"/>
</g>
<defs>
<clipPath id="clip0">
<rect width="167.1" height="171.1" fill="white"/>
</clipPath>
</defs>
</svg>
