<svg width="240" height="205" viewBox="0 0 240 205" fill="none" xmlns="http://www.w3.org/2000/svg">
<path d="M91.4336 131.658H39.3525V183.831H91.4336V131.658Z" fill="#6666CC"/>
<path d="M97.7603 125.423H43.1118V180.163H97.7603V125.423Z" fill="#F4F4F4"/>
<path d="M149.535 78.1025H201.616V25.9298L149.535 25.9298V78.1025Z" fill="#66CCCC"/>
<path d="M143.256 84.3828H197.904V29.6427L143.256 29.6427V84.3828Z" fill="#F4F4F4"/>
<path d="M120.5 114.237C126.982 114.237 132.236 108.982 132.236 102.5C132.236 96.0183 126.982 90.7637 120.5 90.7637C114.018 90.7637 108.763 96.0183 108.763 102.5C108.763 108.982 114.018 114.237 120.5 114.237Z" fill="#6666CC"/>
<path d="M211 102.5H30" stroke="#6666CC" stroke-width="8" stroke-miterlimit="10"/>
<path d="M120.5 193V12" stroke="#6666CC" stroke-width="8" stroke-miterlimit="10"/>
<path d="M201.922 125.057H143.056V150.639H201.922V125.057Z" fill="#6666CC"/>
<path d="M170.655 154.397H143.056V183.831H170.655V154.397Z" fill="#66CCCC"/>
<path d="M201.831 171.086H174.231V183.923H201.831V171.086Z" fill="#6666CC"/>
<path d="M201.831 154.397H174.231V167.234H201.831V154.397Z" fill="#66CCCC"/>
<path d="M43.6621 65.4568L62.6424 46.4766L73.1869 56.9295L97.2102 32.8145" stroke="#6666CC" stroke-width="8" stroke-miterlimit="10"/>
<path d="M80.7974 32.8145H97.2102V49.319" stroke="#6666CC" stroke-width="8" stroke-miterlimit="10"/>
<path d="M39.2607 80.0352H97.9436" stroke="#66CCCC" stroke-width="8" stroke-miterlimit="10"/>
</svg>
