<svg width="120" height="96" viewBox="0 0 120 96" fill="none" xmlns="http://www.w3.org/2000/svg">
<mask id="mask0" mask-type="alpha" maskUnits="userSpaceOnUse" x="0" y="0" width="120" height="96">
<rect width="120" height="96" fill="#C4C4C4"/>
</mask>
<g mask="url(#mask0)">
<path d="M45.4913 46.0618V41.0752H47.5171C49.0755 41.0752 50.0884 40.2181 50.0884 37.8807V36.7119C50.0884 34.6861 49.1534 33.907 47.673 33.907C46.2705 33.907 45.2576 34.6861 45.2576 36.634V37.8807H40.1931V36.3224C40.1931 31.4137 43.5435 28.9983 47.673 28.9983C51.8025 28.9983 55.1529 31.4916 55.1529 36.0886V37.569C55.1529 40.0623 54.0621 42.0102 52.27 43.101C54.3737 44.2697 55.7762 46.2956 55.7762 49.1784V51.1263C55.7762 56.2688 52.1142 58.9179 47.673 58.9179C43.2318 58.9179 39.5698 56.1908 39.5698 51.1263V49.0226H44.6343V50.5809C44.6343 53.0742 45.8809 54.0871 47.673 54.0871C49.465 54.0871 50.7117 53.1521 50.7117 50.5809V49.6459C50.7117 47.1526 49.465 46.2176 47.5171 46.2176H45.4913V46.0618Z" fill="#66CCCC"/>
<path d="M59.2044 49.1783V38.5818C59.2044 32.1148 62.321 28.9203 67.3076 28.9203C72.3721 28.9203 75.4109 32.1148 75.4109 38.5818V49.1783C75.4109 55.6453 72.3721 58.8399 67.3076 58.8399C62.321 58.8399 59.2044 55.6453 59.2044 49.1783ZM70.1905 49.2563V38.426C70.1905 34.9977 69.0997 33.9069 67.3076 33.9069C65.5156 33.9069 64.4248 34.9977 64.4248 38.426V49.2563C64.4248 52.6845 65.5156 53.7754 67.3076 53.7754C69.0997 53.7754 70.1905 52.6845 70.1905 49.2563Z" fill="#66CCCC"/>
<path d="M57.802 82.604C36.3752 82.604 19 65.2288 19 43.802C19 22.3752 36.3752 5 57.802 5C79.2288 5 96.604 22.3752 96.604 43.802C96.604 47.7757 95.9806 51.6715 94.8119 55.4114L88.8903 53.5414C89.9032 50.4248 90.3707 47.1523 90.3707 43.802C90.3707 25.8814 75.8005 11.2332 57.802 11.2332C39.8814 11.2332 25.2332 25.8035 25.2332 43.802C25.2332 61.7226 39.8035 76.3707 57.802 76.3707C66.6844 76.3707 74.9434 72.8645 81.0987 66.5533L85.5399 70.9166C78.2159 78.3965 68.3206 82.604 57.802 82.604Z" fill="#6666CC"/>
<path d="M92.6301 58.8397L80.3195 45.1266L84.9165 40.9971L93.0976 50.0353L102.214 41.9321L106.421 46.5291L92.6301 58.8397Z" fill="#6666CC"/>
</g>
</svg>
