<svg width="111" height="90" viewBox="0 0 111 90" fill="none" xmlns="http://www.w3.org/2000/svg">
<path d="M40.4914 46.0621V41.0755H42.5172C44.0755 41.0755 45.0884 40.2184 45.0884 37.8809V36.7122C45.0884 34.6864 44.1534 33.9072 42.673 33.9072C41.2706 33.9072 40.2577 34.6864 40.2577 36.6343V37.8809H35.1931V36.3226C35.1931 31.4139 38.5435 28.9985 42.673 28.9985C46.8026 28.9985 50.1529 31.4918 50.1529 36.0889V37.5693C50.1529 40.0626 49.0621 42.0104 47.2701 43.1013C49.3738 44.27 50.7763 46.2958 50.7763 49.1787V51.1266C50.7763 56.269 47.1142 58.9181 42.673 58.9181C38.2319 58.9181 34.5698 56.1911 34.5698 51.1266V49.0228H39.6343V50.5812C39.6343 53.0745 40.881 54.0874 42.673 54.0874C44.4651 54.0874 45.7117 53.1524 45.7117 50.5812V49.6462C45.7117 47.1529 44.4651 46.2179 42.5172 46.2179H40.4914V46.0621Z" fill="#66CCCC"/>
<path d="M54.2046 49.1785V38.5819C54.2046 32.1149 57.3212 28.9204 62.3078 28.9204C67.3723 28.9204 70.4111 32.1149 70.4111 38.5819V49.1785C70.4111 55.6455 67.3723 58.84 62.3078 58.84C57.3212 58.84 54.2046 55.6455 54.2046 49.1785ZM65.1907 49.2564V38.4261C65.1907 34.9978 64.0999 33.907 62.3078 33.907C60.5157 33.907 59.4249 34.9978 59.4249 38.4261V49.2564C59.4249 52.6847 60.5157 53.7755 62.3078 53.7755C64.0999 53.7755 65.1907 52.6847 65.1907 49.2564Z" fill="#66CCCC"/>
<path d="M52.802 82.604C31.3752 82.604 14 65.2288 14 43.802C14 22.3752 31.3752 5 52.802 5C74.2288 5 91.604 22.3752 91.604 43.802C91.604 47.7757 90.9806 51.6715 89.8119 55.4114L83.8903 53.5414C84.9032 50.4248 85.3707 47.1523 85.3707 43.802C85.3707 25.8814 70.8005 11.2332 52.802 11.2332C34.8814 11.2332 20.2332 25.8035 20.2332 43.802C20.2332 61.7226 34.8035 76.3707 52.802 76.3707C61.6844 76.3707 69.9434 72.8645 76.0987 66.5533L80.5399 70.9166C73.2159 78.3965 63.3206 82.604 52.802 82.604Z" fill="#6666CC"/>
<path d="M87.63 58.8397L75.3193 45.1266L79.9164 40.9971L88.0975 50.0353L97.2136 41.9321L101.421 46.5291L87.63 58.8397Z" fill="#6666CC"/>
</svg>
