<svg width="111" height="91" viewBox="0 0 111 91" fill="none" xmlns="http://www.w3.org/2000/svg">
<path d="M49.6844 88.604H12.9861V33.9072H19.2193V82.3707H49.6844V88.604Z" fill="#6666CC"/>
<path d="M5.42826 44.8933L2 39.6729L46.1002 11L67.6828 25.1806L64.2545 30.401L46.1002 18.4799L5.42826 44.8933Z" fill="#6666CC"/>
<path d="M78.1236 89.7725C76.9548 89.7725 75.7861 89.7725 74.5394 89.7725C73.6044 89.7725 73.059 89.3829 72.9811 88.2921C72.8253 86.1884 72.5915 84.0847 72.4357 81.9809C72.3578 81.3576 72.202 80.968 71.5007 80.8122C70.2541 80.4226 69.0853 79.8772 67.9166 79.3318C67.2933 79.0201 66.9037 79.0202 66.3583 79.4876C64.6441 80.8901 62.8521 82.2147 61.2159 83.6172C60.3588 84.3184 59.6576 84.3184 58.8784 83.4613C57.398 81.8251 55.9176 80.1889 54.3593 78.6306C53.8139 78.0072 53.8139 77.5398 54.2814 76.9164C55.6838 75.2023 56.9305 73.4102 58.333 71.6961C58.8005 71.0728 58.8005 70.6832 58.4888 69.9819C57.9434 68.8911 57.4759 67.6445 57.0863 66.4757C56.8526 65.7745 56.6189 65.5408 55.9176 65.4628C53.736 65.2291 51.5543 64.9174 49.3727 64.6837C48.3598 64.6058 47.9702 64.1383 47.9702 63.1254C48.0481 60.9437 48.0481 58.7621 47.9702 56.6584C47.9702 55.5676 48.3598 55.1001 49.4506 55.0221C51.6322 54.7884 53.736 54.4767 55.9176 54.243C56.5409 54.1651 56.8526 53.9313 57.0863 53.2301C57.398 52.1393 57.7876 51.0484 58.4109 50.1135C58.8005 49.4122 58.8784 48.9447 58.333 48.3214C56.9305 46.5293 55.6839 44.6594 54.3593 42.9452C53.8139 42.1661 53.8918 41.6986 54.5151 41.0752C55.9955 39.5169 57.4759 37.9586 58.9563 36.3224C59.6575 35.5432 60.3588 35.4653 61.1379 36.1666C62.8521 37.569 64.6441 38.8936 66.3583 40.2961C66.9037 40.7636 67.3712 40.8415 67.9945 40.5298C68.1504 40.4519 68.3841 40.374 68.5399 40.2961C69.7866 39.7507 71.4228 39.5169 72.2019 38.504C72.9032 37.569 72.5915 35.9328 72.7474 34.6083C72.8253 33.5174 72.9811 32.5045 72.9811 31.4137C72.9811 30.4008 73.6044 30.0112 74.4615 30.0112C76.8769 30.0112 79.2923 30.0112 81.7077 30.0112C82.6426 30.0112 82.9543 30.4787 83.1101 31.3358C83.3439 33.4395 83.6555 35.5432 83.8893 37.647C83.9672 38.4261 84.2789 38.8936 84.9801 39.2053C86.0709 39.5948 87.0838 40.0623 88.0968 40.5298C88.7201 40.8415 89.1097 40.7636 89.6551 40.374C91.3692 38.9715 93.1613 37.647 94.8754 36.3224C95.7325 35.6212 96.4337 35.6212 97.2129 36.4782C98.7712 38.1145 100.407 39.7507 102.044 41.3869C102.667 41.9323 102.667 42.3998 102.122 43.0231C100.563 44.8931 99.1608 46.841 97.6025 48.6331C97.2129 49.1785 97.135 49.4901 97.4466 50.1135C97.992 51.1264 98.4595 52.1393 98.8491 53.2301C99.0828 54.0872 99.4724 54.3988 100.33 54.4767C102.511 54.7105 104.693 55.0221 106.874 55.2559C107.965 55.3338 108.355 55.8792 108.355 56.8921C108.277 59.0738 108.277 61.2554 108.355 63.3591C108.355 64.372 107.965 64.7616 107.03 64.8395C104.693 65.0733 102.433 65.4628 100.096 65.6966C99.3945 65.7745 99.1607 66.0082 98.927 66.6316C98.5374 67.8782 97.992 69.1249 97.4466 70.3715C97.135 70.9169 97.2129 71.3065 97.6025 71.774C99.0829 73.5661 100.563 75.3581 102.044 77.1502C102.589 77.8514 102.589 78.241 101.966 78.8643C100.329 80.4226 98.6933 82.0589 97.1349 83.773C96.3558 84.5522 95.7325 84.5522 94.8754 83.9288C93.1613 82.5263 91.3692 81.2018 89.6551 79.8772C89.1097 79.4097 88.72 79.3318 88.0188 79.6435C87.0059 80.1889 85.8372 80.5785 84.8243 81.1239C84.4347 81.3576 83.9672 81.903 83.8893 82.2926C83.5776 84.3963 83.266 86.578 83.0322 88.7596C82.9543 89.7725 82.4868 90.24 81.4739 90.1621C80.461 89.6946 79.2923 89.7725 78.1236 89.7725ZM78.0456 71.8519C84.9801 71.8519 90.4342 66.5537 90.4342 59.775C90.4342 53.0743 84.7464 47.3864 78.0456 47.3864C71.5007 47.3864 66.0466 52.9963 65.9687 59.775C65.9687 66.5537 71.267 71.8519 78.0456 71.8519Z" fill="#66CCCC"/>
</svg>
