<svg width="120" height="96" viewBox="0 0 120 96" fill="none" xmlns="http://www.w3.org/2000/svg">
<mask id="mask0" mask-type="alpha" maskUnits="userSpaceOnUse" x="0" y="0" width="120" height="96">
<rect width="120" height="96" fill="#C4C4C4"/>
</mask>
<g mask="url(#mask0)">
<path d="M57.6844 86.6039H20.9861V31.9071H27.2193V80.3706H57.6844V86.6039Z" fill="#6666CC"/>
<path d="M13.4283 42.8933L10 37.6729L54.1002 9L75.6828 23.1806L72.2545 28.401L54.1002 16.4799L13.4283 42.8933Z" fill="#6666CC"/>
<path d="M86.1236 87.7726C84.9548 87.7726 83.7861 87.7726 82.5394 87.7726C81.6044 87.7726 81.059 87.383 80.9811 86.2922C80.8253 84.1885 80.5915 82.0848 80.4357 79.9811C80.3578 79.3577 80.202 78.9682 79.5007 78.8123C78.2541 78.4227 77.0853 77.8773 75.9166 77.3319C75.2933 77.0203 74.9037 77.0203 74.3583 77.4878C72.6441 78.8902 70.8521 80.2148 69.2159 81.6173C68.3588 82.3185 67.6576 82.3185 66.8784 81.4615C65.398 79.8252 63.9176 78.189 62.3593 76.6307C61.8139 76.0074 61.8139 75.5399 62.2814 74.9165C63.6838 73.2024 64.9305 71.4103 66.333 69.6962C66.8005 69.0729 66.8005 68.6833 66.4888 67.9821C65.9434 66.8912 65.4759 65.6446 65.0863 64.4759C64.8526 63.7746 64.6189 63.5409 63.9176 63.463C61.736 63.2292 59.5543 62.9175 57.3727 62.6838C56.3598 62.6059 55.9702 62.1384 55.9702 61.1255C56.0481 58.9439 56.0481 56.7622 55.9702 54.6585C55.9702 53.5677 56.3598 53.1002 57.4506 53.0223C59.6322 52.7885 61.736 52.4769 63.9176 52.2431C64.5409 52.1652 64.8526 51.9314 65.0863 51.2302C65.398 50.1394 65.7876 49.0486 66.4109 48.1136C66.8005 47.4123 66.8784 46.9448 66.333 46.3215C64.9305 44.5295 63.6839 42.6595 62.3593 40.9453C61.8139 40.1662 61.8918 39.6987 62.5151 39.0754C63.9955 37.5171 65.4759 35.9587 66.9563 34.3225C67.6575 33.5434 68.3588 33.4654 69.1379 34.1667C70.8521 35.5692 72.6441 36.8937 74.3583 38.2962C74.9037 38.7637 75.3712 38.8416 75.9945 38.53C76.1504 38.452 76.3841 38.3741 76.5399 38.2962C77.7866 37.7508 79.4228 37.5171 80.2019 36.5042C80.9032 35.5692 80.5915 33.9329 80.7474 32.6084C80.8253 31.5176 80.9811 30.5047 80.9811 29.4138C80.9811 28.4009 81.6044 28.0114 82.4615 28.0114C84.8769 28.0114 87.2923 28.0114 89.7077 28.0114C90.6426 28.0114 90.9543 28.4788 91.1101 29.3359C91.3439 31.4396 91.6555 33.5434 91.8893 35.6471C91.9672 36.4262 92.2789 36.8937 92.9801 37.2054C94.0709 37.595 95.0838 38.0625 96.0968 38.53C96.7201 38.8416 97.1097 38.7637 97.6551 38.3741C99.3692 36.9716 101.161 35.6471 102.875 34.3225C103.732 33.6213 104.434 33.6213 105.213 34.4783C106.771 36.1146 108.407 37.7508 110.044 39.387C110.667 39.9324 110.667 40.3999 110.122 41.0233C108.563 42.8932 107.161 44.8411 105.602 46.6332C105.213 47.1786 105.135 47.4903 105.447 48.1136C105.992 49.1265 106.46 50.1394 106.849 51.2302C107.083 52.0873 107.472 52.3989 108.33 52.4769C110.511 52.7106 112.693 53.0223 114.874 53.256C115.965 53.3339 116.355 53.8793 116.355 54.8922C116.277 57.0739 116.277 59.2555 116.355 61.3592C116.355 62.3721 115.965 62.7617 115.03 62.8396C112.693 63.0734 110.433 63.463 108.096 63.6967C107.394 63.7746 107.161 64.0084 106.927 64.6317C106.537 65.8783 105.992 67.125 105.447 68.3716C105.135 68.917 105.213 69.3066 105.602 69.7741C107.083 71.5662 108.563 73.3582 110.044 75.1503C110.589 75.8515 110.589 76.2411 109.966 76.8644C108.329 78.4228 106.693 80.059 105.135 81.7731C104.356 82.5523 103.732 82.5523 102.875 81.929C101.161 80.5265 99.3692 79.2019 97.6551 77.8773C97.1097 77.4098 96.72 77.3319 96.0188 77.6436C95.0059 78.189 93.8372 78.5786 92.8243 79.124C92.4347 79.3577 91.9672 79.9032 91.8893 80.2927C91.5776 82.3965 91.266 84.5781 91.0322 86.7597C90.9543 87.7726 90.4868 88.2401 89.4739 88.1622C88.461 87.6947 87.2923 87.7726 86.1236 87.7726ZM86.0456 69.852C92.9801 69.852 98.4342 64.5538 98.4342 57.7751C98.4342 51.0744 92.7464 45.3865 86.0456 45.3865C79.5007 45.3865 74.0466 50.9965 73.9687 57.7751C73.9687 64.5538 79.267 69.852 86.0456 69.852Z" fill="#66CCCC"/>
</g>
</svg>
