<svg width="120" height="96" viewBox="0 0 120 96" fill="none" xmlns="http://www.w3.org/2000/svg">
<mask id="mask0" mask-type="alpha" maskUnits="userSpaceOnUse" x="0" y="0" width="120" height="96">
<rect width="120" height="96" fill="#C4C4C4"/>
</mask>
<g mask="url(#mask0)">
<path d="M91.7726 87.3182H24.1418V29.1932H30.3751V81.0849H85.5394V29.1152H91.7726V87.3182Z" fill="#6666CC"/>
<path d="M99.8759 39.7896L58.0352 15.2462L16.1166 39.5558L13 34.1796L58.0352 8L102.993 34.4134L99.8759 39.7896Z" fill="#6666CC"/>
<path d="M45.179 39.4003H53.2823V58.4896H56.2431V63.2424H53.2823V67.2941H47.984V63.2424H38.9458V58.0221L45.179 39.4003ZM47.984 58.4896V43.9973L43.2312 58.4896H47.984Z" fill="#66CCCC"/>
<path d="M63.4113 52.4901C61.6972 51.3992 60.5285 49.6072 60.5285 47.1918V45.7893C60.5285 41.3481 63.8788 38.9327 68.0862 38.9327C72.2937 38.9327 75.644 41.3481 75.644 45.7893V47.1918C75.644 49.6072 74.4753 51.3992 72.7612 52.4901C74.9428 53.5809 76.4232 55.6067 76.4232 58.4116V60.1258C76.4232 65.0345 72.6832 67.6836 68.1641 67.6836C63.645 67.6836 59.9051 65.0345 59.9051 60.1258V58.4896C59.7493 55.6067 61.2297 53.6588 63.4113 52.4901ZM64.9696 59.5804C64.9696 61.9958 66.2163 62.9307 68.0862 62.9307C69.9562 62.9307 71.2029 61.9958 71.2029 59.5804V58.4116C71.2029 55.9963 69.9562 55.0613 68.0862 55.0613C66.2942 55.0613 64.9696 55.9183 64.9696 58.4116V59.5804ZM65.593 47.4255C65.593 49.6072 66.5279 50.4642 68.0083 50.4642C69.4887 50.4642 70.4237 49.6851 70.4237 47.4255V46.4906C70.4237 44.5427 69.4887 43.8414 68.0083 43.8414C66.5279 43.8414 65.593 44.5427 65.593 46.4906V47.4255Z" fill="#66CCCC"/>
</g>
</svg>
