<svg width="111" height="90" viewBox="0 0 111 90" fill="none" xmlns="http://www.w3.org/2000/svg">
<path d="M90.7726 89.3182H23.1418V31.1932H29.3751V83.0849H84.5394V31.1152H90.7726V89.3182Z" fill="#6666CC"/>
<path d="M98.8759 41.7896L57.0352 17.2462L15.1166 41.5558L12 36.1796L57.0352 10L101.993 36.4134L98.8759 41.7896Z" fill="#6666CC"/>
<path d="M44.179 41.4004H52.2823V60.4897H55.2431V65.2426H52.2823V69.2942H46.984V65.2426H37.9458V60.0222L44.179 41.4004ZM46.984 60.4897V45.9974L42.2312 60.4897H46.984Z" fill="#66CCCC"/>
<path d="M62.4112 54.4899C60.6971 53.3991 59.5284 51.6071 59.5284 49.1917V47.7892C59.5284 43.348 62.8787 40.9326 67.0862 40.9326C71.2936 40.9326 74.6439 43.348 74.6439 47.7892V49.1917C74.6439 51.6071 73.4753 53.3991 71.7611 54.4899C73.9427 55.5807 75.4231 57.6066 75.4231 60.4115V62.1257C75.4231 67.0343 71.6832 69.6835 67.1641 69.6835C62.645 69.6835 58.905 67.0343 58.905 62.1257V60.4894C58.7492 57.6066 60.2296 55.6587 62.4112 54.4899ZM63.9695 61.5803C63.9695 63.9956 65.2162 64.9306 67.0862 64.9306C68.9561 64.9306 70.2028 63.9956 70.2028 61.5803V60.4115C70.2028 57.9961 68.9561 57.0611 67.0862 57.0611C65.2941 57.0611 63.9695 57.9182 63.9695 60.4115V61.5803ZM64.5929 49.4254C64.5929 51.6071 65.5279 52.4641 67.0083 52.4641C68.4887 52.4641 69.4236 51.685 69.4236 49.4254V48.4904C69.4236 46.5425 68.4887 45.8413 67.0083 45.8413C65.5279 45.8413 64.5929 46.5425 64.5929 48.4904V49.4254Z" fill="#66CCCC"/>
</svg>
