<svg width="120" height="96" viewBox="0 0 120 96" fill="none" xmlns="http://www.w3.org/2000/svg">
<mask id="mask0" mask-type="alpha" maskUnits="userSpaceOnUse" x="0" y="0" width="120" height="96">
<rect width="120" height="96" fill="#C4C4C4"/>
</mask>
<g mask="url(#mask0)">
<path d="M62.0615 62.7355H55.3608V61.1772C55.3608 48.3211 59.3345 41.6203 63.3082 33.9067H50.6859V27.9851H68.7623V36.0883C64.9444 43.9578 61.9836 48.6327 61.9836 60.2422V62.7355H62.0615Z" fill="#66CCCC"/>
<path d="M59.802 82.604C38.3752 82.604 21 65.2288 21 43.802C21 22.3752 38.3752 5 59.802 5C81.2288 5 98.6039 22.3752 98.6039 43.802C98.6039 47.7757 97.9806 51.6715 96.8119 55.4114L90.8903 53.5414C91.9032 50.4248 92.3707 47.1523 92.3707 43.802C92.3707 25.8814 77.8005 11.2332 59.802 11.2332C41.8035 11.2332 27.2332 25.8814 27.2332 43.802C27.2332 61.7226 41.8035 76.3707 59.802 76.3707C68.6844 76.3707 76.9434 72.8645 83.0987 66.5533L87.5399 70.9166C80.2159 78.3965 70.3206 82.604 59.802 82.604Z" fill="#6666CC"/>
<path d="M94.6302 58.8397L82.3196 45.1266L86.9166 40.9971L95.0977 50.0353L104.214 41.9321L108.343 46.5291L94.6302 58.8397Z" fill="#6666CC"/>
</g>
</svg>
