<svg width="111" height="90" viewBox="0 0 111 90" fill="none" xmlns="http://www.w3.org/2000/svg">
<path d="M55.0615 62.7357H48.3607V61.1774C48.3607 48.3213 52.3344 41.6206 56.3081 33.9069H43.6858V27.9854H61.7622V36.0886C57.9444 43.958 54.9836 48.633 54.9836 60.2424V62.7357H55.0615Z" fill="#66CCCC"/>
<path d="M52.802 82.604C31.3752 82.604 14 65.2288 14 43.802C14 22.3752 31.3752 5 52.802 5C74.2288 5 91.6039 22.3752 91.6039 43.802C91.6039 47.7757 90.9806 51.6715 89.8119 55.4114L83.8903 53.5414C84.9032 50.4248 85.3707 47.1523 85.3707 43.802C85.3707 25.8814 70.8005 11.2332 52.802 11.2332C34.8035 11.2332 20.2332 25.8814 20.2332 43.802C20.2332 61.7226 34.8035 76.3707 52.802 76.3707C61.6844 76.3707 69.9434 72.8645 76.0987 66.5533L80.5399 70.9166C73.2159 78.3965 63.3206 82.604 52.802 82.604Z" fill="#6666CC"/>
<path d="M87.6302 58.8397L75.3196 45.1266L79.9166 40.9971L88.0977 50.0353L97.2139 41.9321L101.343 46.5291L87.6302 58.8397Z" fill="#6666CC"/>
</svg>
