<svg width="111" height="90" viewBox="0 0 111 90" fill="none" xmlns="http://www.w3.org/2000/svg">
<path d="M71.7746 22.2578L57.9056 25.2965C57.2823 27.5561 56.1915 29.8935 54.8669 32.3089L55.1786 32.231L68.658 29.2702V77.8896L51.5944 81.6295V37.8409C49.6466 40.8017 47.4649 43.6067 45.3612 46.1779V81.7074L28.2977 77.9675V49.9179C26.3498 47.6583 24.1682 45.0092 22.0645 42.2042V47.7362V82.9541L48.4778 88.7977L71.9304 83.6553L98.2659 87.7848V28.1015L71.7746 22.2578ZM91.9547 80.4608L74.8912 77.8116V29.3481L91.9547 33.0881V80.4608Z" fill="#6666CC"/>
<path d="M17 21.1672C17 10.5707 25.1811 2 35.2322 2C45.2833 2 53.4645 10.5707 53.4645 21.1672C53.4645 31.7638 35.2322 49.7623 35.2322 49.7623C35.2322 49.7623 17 31.7638 17 21.1672ZM35.2322 29.2705C39.8292 29.2705 43.5692 25.4526 43.5692 20.7777C43.5692 16.1027 39.8292 12.2849 35.2322 12.2849C30.6352 12.2849 26.8952 16.1027 26.8952 20.7777C26.8952 25.4526 30.6352 29.2705 35.2322 29.2705Z" fill="#66CCCC"/>
</svg>
