<svg width="120" height="96" viewBox="0 0 120 96" fill="none" xmlns="http://www.w3.org/2000/svg">
<mask id="mask0" mask-type="alpha" maskUnits="userSpaceOnUse" x="0" y="0" width="120" height="96">
<rect width="120" height="96" fill="#C4C4C4"/>
</mask>
<g mask="url(#mask0)">
<path d="M78.7747 20.2581L64.9057 23.2968C64.2824 25.5563 63.1915 27.8938 61.867 30.3092L62.1786 30.2313L75.658 27.2705V75.8898L58.5945 79.6297V35.8412C56.6466 38.802 54.465 41.6069 52.3613 44.1781V79.7077L35.2978 75.9677V47.9181C33.3499 45.6585 31.1682 43.0094 29.0645 40.2044V45.7365V80.9543L55.4779 86.798L78.9305 81.6556L105.266 85.7851V26.1017L78.7747 20.2581ZM98.9548 78.461L81.8913 75.8119V27.3484L98.9548 31.0883V78.461Z" fill="#6666CC"/>
<path d="M24 19.1672C24 8.57072 32.1811 0 42.2322 0C52.2833 0 60.4645 8.57072 60.4645 19.1672C60.4645 29.7638 42.2322 47.7623 42.2322 47.7623C42.2322 47.7623 24 29.7638 24 19.1672ZM42.2322 27.2705C46.8292 27.2705 50.5692 23.4526 50.5692 18.7777C50.5692 14.1027 46.8292 10.2849 42.2322 10.2849C37.6352 10.2849 33.8952 14.1027 33.8952 18.7777C33.8952 23.4526 37.6352 27.2705 42.2322 27.2705Z" fill="#66CCCC"/>
</g>
</svg>
