<svg width="120" height="96" viewBox="0 0 120 96" fill="none" xmlns="http://www.w3.org/2000/svg">
<mask id="mask0" mask-type="alpha" maskUnits="userSpaceOnUse" x="0" y="0" width="120" height="96">
<rect width="120" height="96" fill="#C4C4C4"/>
</mask>
<g mask="url(#mask0)">
<path d="M100.188 82.6559H19V12.6877H37.2323V18.9209H25.2332V76.4226H93.9548V18.9209H81.9558V12.6877H100.188V82.6559Z" fill="#6666CC"/>
<path d="M68.788 12.6877H50.4V18.9209H68.788V12.6877Z" fill="#6666CC"/>
<path d="M47.0496 7H40.8164V24.6089H47.0496V7Z" fill="#6666CC"/>
<path d="M78.6054 7H72.3722V24.6089H78.6054V7Z" fill="#6666CC"/>
<path d="M39.1022 53.4377V48.9965H40.9722C42.4526 48.9965 43.3876 48.2174 43.3876 46.1137V45.0228C43.3876 43.2308 42.4526 42.5295 41.128 42.5295C39.8035 42.5295 38.8685 43.2308 38.8685 44.9449V46.1137H34.0377V44.7112C34.0377 40.3479 37.2323 38.1663 41.128 38.1663C45.1017 38.1663 48.2184 40.3479 48.2184 44.5553V45.802C48.2184 48.0615 47.1275 49.7757 45.4913 50.7107C47.5171 51.7236 48.8417 53.5936 48.8417 56.1648V57.8789C48.8417 62.4759 45.4134 64.8913 41.128 64.8913C36.8427 64.8913 33.4144 62.4759 33.4144 57.8789V56.0089H38.2452V57.4114C38.2452 59.671 39.4139 60.528 41.128 60.528C42.8422 60.528 44.0109 59.671 44.0109 57.4114V56.5543C44.0109 54.2948 42.7643 53.5156 40.9722 53.5156H39.1022V53.4377Z" fill="#66CCCC"/>
<path d="M57.1007 50.3992C58.1136 48.8409 59.594 48.2955 61.3082 48.2955C64.6585 48.2955 67.5414 50.8667 67.5414 55.9312V57.022C67.5414 62.2424 64.1911 64.9694 59.8278 64.9694C55.4645 64.9694 52.1141 62.1644 52.1141 56.7103V46.5813C52.1141 41.1272 55.4645 38.3223 59.8278 38.3223C63.9573 38.3223 67.2298 40.8156 67.2298 45.6463V46.5813H62.3211V45.8022C62.3211 43.4647 61.3082 42.5297 59.8278 42.5297C58.1136 42.5297 57.1007 43.6984 57.1007 46.5813V50.3992ZM57.1007 56.8662C57.1007 59.4374 58.2695 60.5282 59.9057 60.5282C61.6198 60.5282 62.7107 59.5153 62.7107 56.8662V56.2429C62.7107 53.5937 61.6198 52.6587 59.9057 52.6587C58.2695 52.6587 57.1007 53.5937 57.1007 56.2429V56.8662Z" fill="#66CCCC"/>
<path d="M76.5017 48.3733C77.3588 47.4383 78.5275 46.815 79.93 46.815C83.9037 46.815 86.0074 49.3862 86.0074 54.3728V57.0998C86.0074 62.2423 82.8129 64.8135 78.7613 64.8135C74.7097 64.8135 71.4372 62.3202 71.4372 57.4894V56.2428H76.1901V56.8661C76.1901 59.5152 77.203 60.4502 78.7613 60.4502C80.2417 60.4502 81.2546 59.4373 81.2546 57.0998V54.5286C81.2546 51.8795 80.2417 50.9445 78.7613 50.9445C77.2809 50.9445 76.6576 51.8016 76.4238 52.6586H71.8268V38.5559H85.2283V42.9971H76.5017V48.3733Z" fill="#66CCCC"/>
</g>
</svg>
