<svg width="111" height="90" viewBox="0 0 111 90" fill="none" xmlns="http://www.w3.org/2000/svg">
<path d="M97.1881 82.6557H16V12.6875H34.2323V18.9207H22.2332V76.4225H90.9548V18.9207H78.9558V12.6875H97.1881V82.6557Z" fill="#6666CC"/>
<path d="M65.788 12.6875H47.3999V18.9207H65.788V12.6875Z" fill="#6666CC"/>
<path d="M44.0497 7H37.8164V24.6089H44.0497V7Z" fill="#6666CC"/>
<path d="M75.6053 7H69.3721V24.6089H75.6053V7Z" fill="#6666CC"/>
<path d="M36.1021 53.4375V48.9963H37.9721C39.4525 48.9963 40.3875 48.2171 40.3875 46.1134V45.0226C40.3875 43.2305 39.4525 42.5293 38.128 42.5293C36.8034 42.5293 35.8684 43.2305 35.8684 44.9447V46.1134H31.0376V44.7109C31.0376 40.3477 34.2322 38.166 38.128 38.166C42.1016 38.166 45.2183 40.3477 45.2183 44.5551V45.8017C45.2183 48.0613 44.1275 49.7754 42.4912 50.7104C44.517 51.7233 45.8416 53.5933 45.8416 56.1645V57.8787C45.8416 62.4757 42.4133 64.8911 38.128 64.8911C33.8426 64.8911 30.4143 62.4757 30.4143 57.8787V56.0087H35.2451V57.4112C35.2451 59.6707 36.4138 60.5278 38.128 60.5278C39.8421 60.5278 41.0108 59.6707 41.0108 57.4112V56.5541C41.0108 54.2945 39.7642 53.5154 37.9721 53.5154H36.1021V53.4375Z" fill="#66CCCC"/>
<path d="M54.1006 50.3992C55.1135 48.8409 56.5939 48.2955 58.3081 48.2955C61.6584 48.2955 64.5413 50.8667 64.5413 55.9312V57.022C64.5413 62.2424 61.1909 64.9694 56.8277 64.9694C52.4644 64.9694 49.114 62.1644 49.114 56.7103V46.5813C49.114 41.1272 52.4644 38.3223 56.8277 38.3223C60.9572 38.3223 64.2296 40.8156 64.2296 45.6463V46.5813H59.321V45.8022C59.321 43.4647 58.3081 42.5297 56.8277 42.5297C55.1135 42.5297 54.1006 43.6984 54.1006 46.5813V50.3992ZM54.1006 56.8662C54.1006 59.4374 55.2693 60.5282 56.9056 60.5282C58.6197 60.5282 59.7105 59.5153 59.7105 56.8662V56.2429C59.7105 53.5937 58.6197 52.6587 56.9056 52.6587C55.2693 52.6587 54.1006 53.5937 54.1006 56.2429V56.8662Z" fill="#66CCCC"/>
<path d="M73.5015 48.373C74.3586 47.438 75.5273 46.8147 76.9298 46.8147C80.9035 46.8147 83.0072 49.3859 83.0072 54.3725V57.0996C83.0072 62.242 79.8127 64.8132 75.7611 64.8132C71.7095 64.8132 68.437 62.3199 68.437 57.4892V56.2425H73.1899V56.8658C73.1899 59.515 74.2028 60.45 75.7611 60.45C77.2415 60.45 78.2544 59.437 78.2544 57.0996V54.5284C78.2544 51.8792 77.2415 50.9442 75.7611 50.9442C74.2807 50.9442 73.6574 51.8013 73.4236 52.6584H68.8266V38.5557H82.2281V42.9969H73.5015V48.373Z" fill="#66CCCC"/>
</svg>
