<svg width="437" height="406" viewBox="0 0 437 406" fill="none" xmlns="http://www.w3.org/2000/svg">
<path fill-rule="evenodd" clip-rule="evenodd" d="M45.0424 85.6698H45.0416C45.0416 38.4189 83.4606 0 130.711 0C165.156 0 196.068 20.3135 209.757 52.1085L177.079 65.798C169.13 47.2509 151.025 35.3278 130.711 35.3278C102.891 35.3278 80.3696 57.849 80.3694 85.6694H80.3701V158.092H117.465V193.42H35.3279V355.486H226.098V333.848H261.426V390.814H0.000183105V158.092H45.0424V85.6698ZM341.011 292.338C317.89 309.916 289.946 318.833 262.309 318.833C229.189 318.833 195.628 306.026 170.457 280.855C119.673 230.072 119.673 147.935 170.457 97.1511C221.241 46.3674 303.378 46.3674 354.161 97.1511C400.648 143.638 404.581 216.396 365.962 267.329L397.165 298.531L403.363 292.334L479.542 368.535L442.067 406L365.888 329.799L372.181 323.508L341.011 292.338ZM262.309 94.0599C286.597 94.0599 310.885 103.333 329.432 121.881C366.526 158.975 366.526 219.032 329.432 255.684C292.338 292.337 232.28 292.779 195.628 255.684C158.975 218.59 158.534 158.533 195.628 121.881C213.733 103.333 238.021 94.0599 262.309 94.0599ZM262.307 228.306C292.335 228.306 317.506 204.018 327.221 193.42C329.871 190.77 329.871 186.796 327.221 184.146C317.506 173.548 292.335 149.26 262.307 149.26C232.278 149.26 207.107 173.548 197.392 184.146C194.742 186.796 194.742 190.77 197.392 193.42C207.107 204.018 232.278 228.306 262.307 228.306ZM240.227 188.562C240.227 176.197 249.942 166.482 262.307 166.482C274.671 166.482 284.386 176.639 284.386 188.562C284.386 200.927 274.671 210.642 262.307 210.642C249.942 210.642 240.227 200.927 240.227 188.562Z" fill="black" fill-opacity="0.1"/>
</svg>
