<svg width="100%" height="100%" viewBox="0 0 480 407" fill="none" xmlns="http://www.w3.org/2000/svg">
<path fill-rule="evenodd" clip-rule="evenodd" d="M45.0424 86.38H45.0416C45.0416 39.1292 83.4605 0.710205 130.711 0.710205C165.156 0.710205 196.068 21.0237 209.757 52.8187L177.079 66.5082C169.13 47.9611 151.025 36.038 130.711 36.038C102.891 36.038 80.3696 58.5592 80.3694 86.3796H80.3701V158.802H117.465V194.13H35.3279V356.196H226.098V334.558H261.426V391.524H0.000183105V158.802H45.0424V86.38ZM341.011 293.048C317.89 310.626 289.946 319.543 262.309 319.543C229.189 319.543 195.628 306.737 170.457 281.566C119.673 230.782 119.673 148.645 170.457 97.8613C221.241 47.0776 303.378 47.0776 354.161 97.8613C400.648 144.348 404.581 217.106 365.962 268.039L397.165 299.242L403.363 293.045L479.542 369.245L442.067 406.71L365.888 330.51L372.181 324.218L341.011 293.048ZM262.309 94.7701C286.597 94.7701 310.885 104.044 329.432 122.591C366.526 159.685 366.526 219.742 329.432 256.395C292.338 293.047 232.28 293.489 195.628 256.395C158.975 219.3 158.534 159.243 195.628 122.591C213.733 104.044 238.021 94.7701 262.309 94.7701ZM262.307 229.016C292.335 229.016 317.506 204.728 327.221 194.13C329.871 191.48 329.871 187.506 327.221 184.856C317.506 174.258 292.335 149.97 262.307 149.97C232.278 149.97 207.107 174.258 197.392 184.856C194.742 187.506 194.742 191.48 197.392 194.13C207.107 204.728 232.278 229.016 262.307 229.016ZM240.227 189.272C240.227 176.907 249.942 167.192 262.307 167.192C274.671 167.192 284.386 177.349 284.386 189.272C284.386 201.637 274.671 211.352 262.307 211.352C249.942 211.352 240.227 201.637 240.227 189.272Z" fill="black" fill-opacity="0.1"/>
</svg>
