<svg width="46" height="46" viewBox="0 0 46 46" fill="none" xmlns="http://www.w3.org/2000/svg">
<path d="M30.3951 27.629H18.3127C17.8812 27.629 17.5216 27.3414 17.4017 26.9338L13.9016 15.1871H9.73035V13.2692H14.6208C15.0523 13.2692 15.4119 13.5569 15.5318 13.9644L19.0319 25.7352H29.6279L31.4499 18.1837H19.775V16.2658H32.6725C32.9602 16.2658 33.2478 16.4097 33.4157 16.6254C33.6074 16.8652 33.6554 17.1528 33.5835 17.4405L31.306 26.9099C31.2101 27.3174 30.8266 27.629 30.3951 27.629Z" fill="white"/>
<path d="M28.6695 36.0197C26.8955 36.0197 25.4572 34.5813 25.4572 32.8073C25.4572 31.0333 26.8955 29.5949 28.6695 29.5949C30.4435 29.5949 31.8819 31.0333 31.8819 32.8073C31.8819 34.5813 30.4196 36.0197 28.6695 36.0197ZM28.6695 31.5127C27.9503 31.5127 27.375 32.0881 27.375 32.8073C27.375 33.5265 27.9503 34.1018 28.6695 34.1018C29.3887 34.1018 29.9641 33.5265 29.9641 32.8073C29.9641 32.0881 29.3647 31.5127 28.6695 31.5127Z" fill="white"/>
<path d="M19.7995 36.0198C18.0255 36.0198 16.5872 34.5814 16.5872 32.8074C16.5872 31.0334 18.0255 29.595 19.7995 29.595C21.5735 29.595 23.0119 31.0334 23.0119 32.8074C23.0119 34.5814 21.5735 36.0198 19.7995 36.0198ZM19.7995 31.5129C19.0803 31.5129 18.505 32.0882 18.505 32.8074C18.505 33.5266 19.0803 34.102 19.7995 34.102C20.5187 34.102 21.0941 33.5266 21.0941 32.8074C21.0941 32.0882 20.5187 31.5129 19.7995 31.5129Z" fill="white"/>
</svg>
