<svg width="17" height="18" viewBox="0 0 17 18" fill="none" xmlns="http://www.w3.org/2000/svg">
<g clip-path="url(#clip0)">
<path d="M13.7084 11.1147C13.6037 11.9792 13.3343 12.7974 12.9302 13.5229H11.4038C11.5235 12.7665 11.6133 11.9946 11.6433 11.2382L10.5808 10.1421C10.4311 9.98777 10.2665 9.8334 10.1169 9.67903H4.4901C4.52003 8.81453 4.59485 7.9346 4.7445 7.07011H7.8871C7.69256 6.68417 7.54291 6.26736 7.43816 5.83511H4.9989C5.13358 5.27937 5.28323 4.72362 5.46281 4.16788C6.04643 3.96719 6.67496 3.84369 7.33341 3.82825C7.39327 3.39601 7.48305 2.9792 7.6327 2.59326C7.58781 2.59326 7.54291 2.59326 7.49802 2.59326C3.36774 2.59326 0.015625 6.05124 0.015625 10.312C0.015625 14.5727 3.36774 18.0307 7.49802 18.0307C11.6283 18.0307 14.9804 14.5727 14.9804 10.312C14.9804 10.1576 14.9804 10.0032 14.9654 9.86427L13.7084 11.1147ZM3.98129 4.90887C3.90647 5.21762 3.83165 5.52637 3.75682 5.81968H2.93376C3.24802 5.48005 3.59221 5.18674 3.98129 4.90887ZM2.03587 7.07011H3.53235C3.39767 7.9346 3.32284 8.79909 3.29291 9.67903H1.22777C1.31756 8.73734 1.60189 7.84198 2.03587 7.07011ZM2.03587 13.5229C1.60189 12.7356 1.31756 11.8557 1.22777 10.914H3.30788C3.33781 11.7785 3.4276 12.6584 3.57724 13.5229H2.03587ZM2.93376 14.7579H3.81668C3.8915 15.0821 3.96633 15.4063 4.05612 15.7305C3.6371 15.4372 3.26298 15.113 2.93376 14.7579ZM9.44344 16.4406C8.82988 16.6567 8.17143 16.7648 7.48305 16.7648C6.80964 16.7648 6.15119 16.6567 5.53763 16.4406C5.34309 15.8694 5.19344 15.3137 5.04379 14.7425H9.92232C9.78763 15.3137 9.62302 15.8849 9.44344 16.4406ZM10.1917 13.5229H4.78939C4.63974 12.6584 4.53499 11.7785 4.50506 10.914H10.476C10.4311 11.7785 10.3413 12.643 10.1917 13.5229ZM10.925 15.6996C11.0147 15.3754 11.0896 15.0667 11.1644 14.7425H12.0323C11.6882 15.113 11.329 15.4372 10.925 15.6996Z" fill="#111111"/>
<path d="M12.5995 10.7443C12.4498 10.7443 12.3002 10.6826 12.1954 10.5745L11.103 9.44757C10.7139 9.0462 10.3099 8.64483 9.92077 8.27433C9.78608 8.13539 9.6514 8.01189 9.51672 7.87296C8.60386 6.97759 8.11003 5.72716 8.13996 4.43042C8.21478 1.97587 10.1303 0.0307603 12.5097 -0.000114471C13.7069 -0.0155519 14.8292 0.44757 15.6822 1.31206C16.5352 2.17656 16.9991 3.33436 16.9991 4.56935C16.9991 5.7426 16.5651 6.85409 15.787 7.70314C15.772 7.71858 15.757 7.74946 15.7271 7.76489L13.0035 10.5745C12.8988 10.6826 12.7491 10.7443 12.5995 10.7443ZM12.5695 1.17313C12.5546 1.17313 12.5396 1.17313 12.5246 1.17313C10.7887 1.204 9.33714 2.67055 9.29225 4.44585C9.26232 5.40297 9.63644 6.34465 10.3099 6.99302C10.4445 7.13196 10.5792 7.25546 10.7139 7.3944C11.1179 7.78033 11.522 8.1817 11.926 8.59851L12.6144 9.30863L14.8891 6.96215C14.904 6.94671 14.919 6.93127 14.934 6.91584C15.5326 6.2829 15.8618 5.43385 15.8618 4.55392C15.8618 3.64311 15.5176 2.77862 14.8891 2.14568C14.2456 1.52819 13.4375 1.17313 12.5695 1.17313Z" fill="#111111"/>
<path d="M13.0635 5.43387V5.54193H12.3152V5.38756C12.3152 4.60025 13.0335 4.36869 13.0335 3.92101C13.0335 3.70488 12.8988 3.59682 12.6744 3.59682C12.4649 3.59682 12.2853 3.72032 12.2853 4.05994V4.21432H11.4473V3.99819C11.4473 3.21089 12.0159 2.82495 12.6594 2.82495C13.3478 2.82495 13.8566 3.22632 13.8566 3.90557C13.8716 4.662 13.0784 4.80094 13.0635 5.43387ZM12.2404 6.48361C12.2404 6.23661 12.4349 6.02049 12.6893 6.02049C12.9437 6.02049 13.1383 6.22118 13.1383 6.48361C13.1383 6.73061 12.9437 6.94673 12.6893 6.94673C12.4349 6.9313 12.2404 6.73061 12.2404 6.48361Z" fill="#111111"/>
</g>
<defs>
<clipPath id="clip0">
<rect width="17" height="18" fill="white"/>
</clipPath>
</defs>
</svg>
