<svg width="370" height="571" viewBox="0 0 370 571" fill="none" xmlns="http://www.w3.org/2000/svg">
<path d="M590.78 11.3062C550.444 -11.9882 498.672 1.86899 475.353 42.246C475.294 42.3655 473.681 45.1429 470.905 49.9511C457.678 20.5643 428.119 0.0173883 393.844 0.0173883H84.4953C37.8885 0.0173883 0 37.9455 0 84.5344C0 131.123 37.8885 169.051 84.4953 169.051H93.3628C75.2993 194.108 71.8061 228.034 86.5853 256.913C87.2421 258.197 243.364 528.712 243.335 528.712C254.62 548.273 272.833 562.25 294.629 568.073C301.914 570.015 309.289 571 316.633 571C331.263 571 345.714 567.147 358.732 559.651C399.069 536.357 412.952 484.572 389.664 444.224C389.574 444.075 387.992 441.357 385.215 436.549C388.022 436.848 390.858 437.027 393.694 437.027C401.039 437.027 408.414 436.071 415.699 434.1C418.416 433.384 421.103 432.518 423.701 431.532C441.943 424.663 457.14 411.821 466.993 394.739C467.322 394.171 621.264 127.48 621.682 126.763C645.001 86.386 631.117 34.6007 590.78 11.3062ZM320.694 310.222C319.261 312.73 317.947 315.299 316.753 317.897C276.655 248.432 234.975 176.219 235.004 176.219C234.288 174.965 233.541 173.74 232.765 172.546C232.676 172.396 232.556 172.247 232.467 172.098C231.78 171.052 231.093 170.037 230.377 169.022H393.873C396.77 169.022 399.636 168.872 402.442 168.574C362.464 237.83 320.933 309.804 320.694 310.222ZM119.697 242.817C119.577 242.608 119.488 242.429 119.398 242.22C118.682 240.966 118.025 239.681 117.457 238.397C117.338 238.128 117.248 237.83 117.129 237.561C116.592 236.337 116.084 235.082 115.666 233.828C115.636 233.738 115.636 233.679 115.606 233.589C109.605 215.312 115.069 195.004 129.43 182.162C129.46 182.132 129.49 182.102 129.549 182.043C130.565 181.117 131.669 180.281 132.804 179.444C133.013 179.295 133.192 179.116 133.401 178.967C134.715 178.011 136.118 177.115 137.551 176.279C145.195 171.859 153.555 169.768 161.795 169.768C177.56 169.768 192.966 177.443 202.251 191.241C202.878 192.167 203.446 193.092 204.013 194.078C217.419 217.313 209.447 247.148 186.218 260.557C162.93 274.026 133.132 266.052 119.697 242.817ZM442.511 84.5344C442.511 111.383 420.685 133.214 393.844 133.214C367.002 133.214 345.177 111.383 345.177 84.5344C345.177 57.6861 367.002 35.855 393.844 35.855C420.685 35.855 442.511 57.6861 442.511 84.5344ZM35.8284 84.5344C35.8284 57.6861 57.6539 35.855 84.4953 35.855H324.874C315.141 49.6226 309.378 66.4066 309.378 84.5344C309.378 102.632 315.111 119.416 324.874 133.214H84.4953C57.6539 133.184 35.8284 111.353 35.8284 84.5344ZM340.847 528.592C329.591 535.103 316.484 536.805 303.914 533.46C291.374 530.085 280.865 522.052 274.356 510.763C273.908 509.987 199.624 381.27 154.182 302.546C156.779 302.785 159.377 302.935 161.974 302.935C176.306 302.935 190.816 299.291 204.073 291.616C219.747 282.567 231.422 269.188 238.468 253.867C283.91 332.59 358.165 461.277 358.642 462.084C372.048 485.348 364.076 515.183 340.847 528.592ZM406.443 399.487C401.726 400.742 396.949 401.279 392.201 401.13C384.319 400.861 376.556 398.681 369.51 394.619C359.657 388.945 352.253 380.195 348.312 369.682C347.744 368.189 347.267 366.636 346.819 365.083C345.565 360.365 344.998 355.586 345.177 350.838C345.445 342.953 347.625 335.189 351.686 328.141C358.194 316.882 368.674 308.818 381.244 305.473C385.424 304.338 389.693 303.801 393.903 303.801C402.323 303.801 410.653 306.011 418.147 310.341C429.403 316.852 437.465 327.334 440.809 339.877C444.182 352.45 442.451 365.561 435.942 376.82C429.493 388.049 418.983 396.113 406.443 399.487ZM590.691 108.755C590.631 108.874 567.85 148.355 484.698 292.393L470.516 316.941C463.261 301.203 451.408 288.092 436.091 279.252C420.775 270.412 403.487 266.679 386.23 268.292C431.822 189.3 506.375 60.1051 506.375 60.135C519.78 36.9003 549.608 28.8965 572.836 42.3356C596.095 55.7449 604.067 85.5797 590.691 108.755Z" fill="black" fill-opacity="0.03"/>
</svg>
