<svg width="242" height="478" viewBox="0 0 242 478" fill="none" xmlns="http://www.w3.org/2000/svg">
<path d="M492.784 9.92983C459.138 -9.52981 415.954 2.04618 396.503 35.7762C396.453 35.876 395.109 38.1962 392.792 42.2129C381.76 17.6638 357.104 0.499389 328.514 0.499389H70.4795C31.6037 0.499389 0 32.1837 0 71.1029C0 110.022 31.6037 141.706 70.4795 141.706H77.8761C62.8089 162.638 59.8951 190.979 72.2228 215.104C72.7707 216.177 202.996 442.158 202.971 442.158C212.385 458.499 227.577 470.175 245.757 475.04C251.833 476.662 257.985 477.485 264.111 477.485C276.314 477.485 288.368 474.267 299.227 468.005C332.872 448.545 344.453 405.285 325.027 371.58C324.953 371.455 323.633 369.185 321.317 365.168C323.658 365.417 326.024 365.567 328.39 365.567C334.516 365.567 340.667 364.769 346.744 363.122C349.01 362.523 351.252 361.8 353.419 360.977C368.635 355.238 381.311 344.511 389.53 330.24C389.804 329.766 518.211 106.979 518.56 106.38C538.01 72.6497 526.43 29.3895 492.784 9.92983ZM267.498 259.637C266.303 261.732 265.207 263.878 264.211 266.048C230.764 208.019 195.998 147.694 196.023 147.694C195.425 146.646 194.802 145.623 194.155 144.625C194.08 144.501 193.98 144.376 193.906 144.251C193.333 143.378 192.76 142.53 192.162 141.682H328.539C330.955 141.682 333.346 141.557 335.687 141.307C302.34 199.162 267.698 259.288 267.498 259.637ZM99.8418 203.329C99.7422 203.154 99.6675 203.004 99.5928 202.83C98.995 201.782 98.4471 200.709 97.974 199.636C97.8743 199.412 97.7996 199.162 97.7 198.938C97.2517 197.915 96.8284 196.867 96.4797 195.819C96.4548 195.744 96.4548 195.694 96.4299 195.62C91.4241 180.351 95.9816 163.386 107.961 152.659C107.986 152.634 108.01 152.609 108.06 152.559C108.907 151.786 109.828 151.087 110.775 150.388C110.949 150.264 111.099 150.114 111.273 149.989C112.369 149.191 113.539 148.442 114.735 147.744C121.11 144.052 128.083 142.305 134.957 142.305C148.107 142.305 160.957 148.717 168.702 160.243C169.225 161.016 169.699 161.79 170.172 162.613C181.354 182.023 174.704 206.946 155.329 218.148C135.903 229.4 111.049 222.738 99.8418 203.329ZM369.108 71.1029C369.108 93.5314 350.903 111.769 328.514 111.769C306.125 111.769 287.92 93.5314 287.92 71.1029C287.92 48.6744 306.125 30.4373 328.514 30.4373C350.903 30.4373 369.108 48.6744 369.108 71.1029ZM29.8853 71.1029C29.8853 48.6744 48.0904 30.4373 70.4795 30.4373H270.985C262.866 41.9384 258.06 55.9593 258.06 71.1029C258.06 86.2216 262.841 100.242 270.985 111.769H70.4795C48.0904 111.744 29.8853 93.5064 29.8853 71.1029ZM284.309 442.058C274.92 447.497 263.987 448.919 253.502 446.125C243.042 443.306 234.276 436.595 228.847 427.164C228.473 426.516 166.511 318.989 128.606 253.225C130.773 253.425 132.94 253.549 135.106 253.549C147.061 253.549 159.164 250.506 170.222 244.094C183.296 236.535 193.034 225.358 198.912 212.559C236.816 278.323 298.753 385.825 299.152 386.499C310.334 405.933 303.684 430.857 284.309 442.058ZM339.024 334.207C335.089 335.255 331.104 335.704 327.144 335.579C320.57 335.355 314.094 333.533 308.217 330.141C299.999 325.4 293.822 318.091 290.535 309.309C290.062 308.061 289.663 306.764 289.29 305.467C288.244 301.525 287.771 297.533 287.92 293.566C288.144 286.98 289.962 280.494 293.349 274.606C298.778 265.2 307.52 258.464 318.004 255.67C321.491 254.722 325.052 254.273 328.564 254.273C335.587 254.273 342.535 256.119 348.786 259.737C358.175 265.175 364.899 273.932 367.689 284.41C370.503 294.914 369.058 305.866 363.629 315.271C358.25 324.652 349.484 331.388 339.024 334.207ZM492.709 91.3359C492.659 91.4357 473.657 124.417 404.298 244.743L392.469 265.25C386.417 252.102 376.53 241.15 363.754 233.765C350.978 226.381 336.558 223.262 322.163 224.609C360.193 158.621 422.379 50.6953 422.379 50.7202C433.561 31.3105 458.44 24.6243 477.816 35.8511C497.217 47.0528 503.866 71.9761 492.709 91.3359Z" fill="black" fill-opacity="0.1"/>
</svg>
