<svg preserveAspectRatio="xMinYMin slice" viewBox="0 0 1068 63" fill="none" xmlns="http://www.w3.org/2000/svg">
<g clip-path="url(#clip0)">
<path d="M11.3452 52.1914L359.954 52.1914" stroke="#6666CC" stroke-width="3"/>
<path d="M359.954 52.1914L708.562 52.1914" stroke="#6666CC" stroke-width="3"/>
<path d="M708.562 52.1914L1057.17 52.1914" stroke="#6666CC" stroke-width="3"/>
<path d="M11.3452 52.1914L185.649 52.1914" stroke="#6666CC" stroke-width="3"/>
<circle cx="11.0874" cy="51.9331" r="11.0874" transform="rotate(-90 11.0874 51.9331)" fill="#6666CC"/>
<circle cx="359.696" cy="51.9331" r="11.0874" transform="rotate(-90 359.696 51.9331)" fill="#6666CC"/>
<circle cx="708.304" cy="51.9331" r="11.0874" transform="rotate(-90 708.304 51.9331)" fill="#6666CC"/>
<circle cx="1056.91" cy="51.9331" r="11.0874" transform="rotate(-90 1056.91 51.9331)" fill="#6666CC"/>
<path d="M708 52.1914L882.304 52.1914" stroke="#6666CC" stroke-width="3"/>
<path d="M360 52.1914L534.304 52.1914" stroke="#6666CC" stroke-width="3"/>
<path d="M10.14 8.67C10.14 10.98 9.18 11.94 6.93 11.94H6.06V15.33H10.08V30H14.4V7.5H10.14V8.67Z" fill="#6161C2"/>
<path d="M366.34 13.56C366.34 9.3 363.58 7.14 360.16 7.14C356.68 7.14 353.98 9.39 353.98 13.68V15.54H358.18V13.89C358.18 11.7 358.93 10.95 360.16 10.95C361.33 10.95 362.14 11.76 362.14 13.65C362.14 18.39 353.86 21.12 353.86 28.08V30H366.55V26.16H358.57C359.77 22.23 366.34 19.44 366.34 13.56Z" fill="#6666CC"/>
<path d="M708.4 20.43C709.99 20.43 711.04 21.15 711.04 23.1V23.82C711.04 25.8 710.05 26.55 708.55 26.55C707.08 26.55 706.06 25.8 706.06 23.85V22.65H701.86V24.3C701.86 28.26 704.86 30.36 708.55 30.36C712.24 30.36 715.24 28.26 715.24 24.3V22.8C715.24 20.58 714.1 18.99 712.36 18.09C713.8 17.22 714.73 15.75 714.73 13.8V12.66C714.73 9.06 711.97 7.14 708.55 7.14C705.13 7.14 702.37 9.03 702.37 12.84V14.07H706.57V13.08C706.57 11.55 707.38 10.95 708.55 10.95C709.75 10.95 710.53 11.55 710.53 13.14V14.07C710.53 15.9 709.69 16.56 708.4 16.56H706.75V20.43H708.4Z" fill="#6666CC"/>
<path d="M1050.23 22.5V26.7H1057.52V30H1061.78V26.7H1064.18V22.86H1061.78V7.5H1055.27L1050.23 22.5ZM1053.68 22.86L1057.52 11.16V22.86H1053.68Z" fill="#6666CC"/>
</g>
<defs>
<clipPath id="clip0">
<rect width="1068" height="63" fill="white"/>
</clipPath>
</defs>
</svg>
