<svg width="17" height="18" viewBox="0 0 17 18" fill="none" xmlns="http://www.w3.org/2000/svg">
<path d="M4.24002 11.4101C1.74749 10.7746 0 8.47284 0 5.78978C0 2.59834 2.49254 0 5.55403 0C7.03058 0 8.42586 0.60722 9.48248 1.69457L8.71034 2.49949C7.87046 1.60984 6.74611 1.12971 5.55403 1.12971C3.08858 1.12971 1.08371 3.21968 1.08371 5.78978C1.08371 7.95035 2.47899 9.80025 4.49741 10.3086L4.24002 11.4101Z" fill="white"/>
<path d="M3.69653 7.41364L3.19531 6.41103L5.01053 5.43667V2.45709H6.09424V6.12861L3.69653 7.41364Z" fill="white"/>
<path d="M10.9733 9.57422C9.15808 9.57422 7.66797 8.03498 7.66797 6.12859C7.66797 4.2222 9.15808 2.69708 10.9733 2.69708C12.7885 2.69708 14.2786 4.23632 14.2786 6.14271C14.2786 8.0491 12.7885 9.57422 10.9733 9.57422ZM10.9733 3.8268C9.75412 3.8268 8.75168 4.85766 8.75168 6.14271C8.75168 7.42776 9.75412 8.4445 10.9733 8.4445C12.1925 8.4445 13.1949 7.41364 13.1949 6.12859C13.1949 4.84354 12.1925 3.8268 10.9733 3.8268Z" fill="white"/>
<path d="M16.3636 17.3267H5.55357C5.25555 17.3267 5.01172 17.0725 5.01172 16.7619V12.7656C5.01172 12.5961 5.07945 12.4408 5.20137 12.3419C6.50182 11.1558 8.6557 10.4497 10.9586 10.4497C13.2615 10.4497 15.4154 11.1558 16.7158 12.3419C16.8377 12.4549 16.9055 12.6102 16.9055 12.7656V16.7619C16.9055 17.0725 16.6616 17.3267 16.3636 17.3267ZM6.09543 16.197H15.8217V13.0339C14.6974 12.116 12.8957 11.5794 10.9586 11.5794C9.02145 11.5794 7.23333 12.116 6.09543 13.0339V16.197Z" fill="white"/>
</svg>
