<svg width="68" height="49" viewBox="0 0 68 49" fill="none" xmlns="http://www.w3.org/2000/svg">
<g opacity="0.5">
<path d="M38.3832 30.888C38.0392 30.888 37.6952 30.7898 37.4003 30.6426C36.4666 30.1026 36.1226 28.8755 36.6631 27.9428L39.8084 22.5434C40.349 21.6107 41.5776 21.2671 42.5114 21.8071C43.4451 22.347 43.7891 23.5742 43.2485 24.5068L40.1033 29.9063C39.7101 30.5444 39.0712 30.888 38.3832 30.888Z" fill="#66CCCC"/>
<path d="M34.8426 37.0224C34.1546 37.0224 33.5157 36.6787 33.1225 36.0406L30.0264 30.6411C29.4858 29.7085 29.8299 28.4814 30.7636 27.9414C31.6973 27.4015 32.926 27.7451 33.4666 28.6777L36.5627 34.0772C37.1033 35.0098 36.7592 36.237 35.8255 36.7769C35.4815 36.9242 35.1866 37.0224 34.8426 37.0224Z" fill="#66CCCC"/>
<path d="M34.3533 25.4895H28.1611C27.0799 25.4895 26.1953 24.6059 26.1953 23.526C26.1953 22.4461 27.0799 21.5626 28.1611 21.5626H34.4025C35.4836 21.5626 36.3682 22.4461 36.3682 23.526C36.3682 24.6059 35.4345 25.4895 34.3533 25.4895Z" fill="#66CCCC"/>
<path d="M59.8064 38.0909H65.4089C66.4901 38.0909 67.3747 37.2073 67.3747 36.1274V1.96345C67.3747 0.883551 66.4901 0 65.4089 0H23.5869C22.5057 0 21.6211 0.883551 21.6211 1.96345V7.65745H25.5527V3.9269H63.4431V34.164H59.8064V38.0909Z" fill="#66CCCC"/>
<path d="M11.9414 46.0428V11.8789C11.9414 10.799 12.826 9.91541 13.9072 9.91541H55.7292C56.8104 9.91541 57.695 10.799 57.695 11.8789V46.0428C57.695 47.1227 56.8104 48.0063 55.7292 48.0063H13.9072C12.826 48.0063 11.9414 47.1718 11.9414 46.0428ZM53.7635 13.8423H15.873V44.0794H53.7635V13.8423Z" fill="#6666CC"/>
<path d="M0.63888 18.906C1.03204 18.5624 1.57263 18.4151 2.11322 18.5133L10.4678 19.8877V23.5201L3.58756 22.3911V38.3932L10.4187 37.2642V40.8966L2.06407 42.271C1.96578 42.271 1.86749 42.271 1.76921 42.271C1.3269 42.271 0.933748 42.1238 0.589735 41.8293C0.245723 41.5347 0 40.9948 0 40.5039V20.2804C0 19.7405 0.245723 19.2496 0.63888 18.906Z" fill="#6666CC"/>
</g>
</svg>
