<svg width="15" height="17" viewBox="0 0 15 17" fill="none" xmlns="http://www.w3.org/2000/svg">
<path d="M5.92393 11.5632V10.6109C5.06265 10.5157 4.41016 9.94433 4.41016 8.96487V8.44792H5.49329V8.91045C5.49329 9.30496 5.66294 9.53622 5.92393 9.61784V7.87657L5.40194 7.49566C4.85385 7.10115 4.46235 6.62502 4.46235 5.79519C4.46235 4.82933 5.1018 4.31239 5.91088 4.21716V3.2785H6.47203V4.24437C7.26806 4.3532 7.88141 4.92456 7.88141 5.93123V6.36655H6.81132V5.95844C6.81132 5.56393 6.69387 5.34627 6.47203 5.25105V6.88349L7.00707 7.278C7.54211 7.65891 7.94666 8.14864 7.94666 8.95126C7.94666 9.95794 7.30721 10.5157 6.45898 10.6245V11.5768H5.92393V11.5632ZM5.92393 6.46178V5.22384C5.68904 5.29186 5.54549 5.48231 5.54549 5.78159C5.55854 6.08087 5.70209 6.27133 5.92393 6.46178ZM6.48508 8.29828V9.61784C6.73302 9.53622 6.87657 9.33217 6.87657 9.04649C6.87657 8.7336 6.73302 8.51594 6.48508 8.29828Z" fill="#FF6666"/>
<path d="M13.6793 5.21027H9.72513C9.43803 5.21027 9.20312 4.9654 9.20312 4.66611V0.544153C9.20312 0.326492 9.33363 0.122434 9.52938 0.0408115C9.72513 -0.0408115 9.94698 -1.6217e-08 10.1036 0.163246L14.0577 4.28521C14.2013 4.43485 14.2535 4.67972 14.1752 4.88377C14.0708 5.07423 13.8881 5.21027 13.6793 5.21027ZM10.2471 4.12196H12.4134L10.2471 1.86372V4.12196Z" fill="#FF6666"/>
<path d="M13.6729 14.2568H2.61965C2.33256 14.2568 2.09766 14.0119 2.09766 13.7126V0.544152C2.09766 0.244868 2.33256 0 2.61965 0H9.71882V1.0883H3.14165V13.1685H13.151V4.6661H14.1949V13.7126C14.1949 14.0119 13.96 14.2568 13.6729 14.2568Z" fill="#FF6666"/>
<path d="M11.5753 16.4333H0.521997C0.234899 16.4333 0 16.1885 0 15.8892V2.72073C0 2.42144 0.234899 2.17657 0.521997 2.17657H1.56599V3.26488H1.04399V15.345H11.0533V14.8009H12.0973V15.8892C12.0973 16.1885 11.8624 16.4333 11.5753 16.4333Z" fill="#FF6666"/>
<path d="M12.2542 6.58423H9.22656V7.67255H12.2542V6.58423Z" fill="#FF6666"/>
<path d="M12.2542 8.54327H9.22656V9.63153H12.2542V8.54327Z" fill="#FF6666"/>
<path d="M12.2542 10.5022H9.22656V11.5905H12.2542V10.5022Z" fill="#FF6666"/>
</svg>
